<mxfile host="app.diagrams.net" agent="Mozilla/5.0 (X11; Linux x86_64) AppleWebKit/537.36 (KHTML, like Gecko) Chrome/134.0.0.0 Safari/537.36" version="26.1.0">
  <diagram name="v1" id="xhsi1D0uulFYL9jBK875">
    <mxGraphModel dx="6599" dy="2260" grid="1" gridSize="10" guides="1" tooltips="1" connect="1" arrows="1" fold="1" page="1" pageScale="1" pageWidth="827" pageHeight="1169" math="0" shadow="0">
      <root>
        <mxCell id="0" />
        <mxCell id="1" parent="0" />
        <UserObject label="" plantUmlData="{&#xa;  &quot;data&quot;: &quot;@startchen\n\nentity FINCAS {\n    id: int\n    numero_finca: int\n    folio_id: int\n    municipio_id: int\n    area_id: int\n    uso_id: int\n    plano_id: int\n    direccion: string\n    area_total: decimal\n    tipo_tenencia: string\n    estado: string\n}\n\nentity LIBROS {\n    id: int\n    nombre: string\n    departamento_id: int\n    fecha_creacion: date\n}\n\nentity FOLIOS {\n    id: int\n    libro_id: int\n    numero_folio: int\n    descripcion: string\n}\n\nentity DEPARTAMENTOS {\n    id: int\n    nombre: string\n}\n\nentity MUNICIPIOS {\n    id: int\n    departamento_id: int\n    nombre: string\n}\n\nentity AREAS {\n    id: int\n    nombre: string\n    descripcion: string\n}\n\nentity USOS {\n    id: int\n    tipo: string\n}\n\nentity PLANOS {\n    id: int\n    numero_plano: string\n    archivo_plano: string\n    fecha_registro: date\n    descripcion: string\n    estado: string\n}\n\nentity PROPIETARIOS {\n    id: int\n    nombre: string\n    dpi: string\n    direccion: string\n    telefono: string\n    email: string\n    nacionalidad: string\n    fecha_nacimiento: date\n}\n\nentity FINCA_PROPIETARIO {\n    id: int\n    finca_id: int\n    propietario_id: int\n    fecha_adquisicion: date\n}\n\nrelationship PerteneceA {\n}\nrelationship UbicadaEn {\n}\nrelationship TieneUso {\n}\nrelationship TienePlano {\n}\nrelationship TienePropietario {\n}\nrelationship EsDuenioDe {\n}\nrelationship RegistradaEn {\n}\n\nMUNICIPIOS -N- PerteneceA\nPerteneceA -1- DEPARTAMENTOS\n\nFINCAS -N- UbicadaEn\nUbicadaEn -1- MUNICIPIOS\n\nFINCAS -N- TieneUso\nTieneUso -1- USOS\n\nFINCAS -N- TienePlano\nTienePlano -1- PLANOS\n\nFINCAS -N- TienePropietario\nTienePropietario -1- FINCA_PROPIETARIO\n\nPROPIETARIOS -N- EsDuenioDe\nEsDuenioDe -1- FINCA_PROPIETARIO\n\nFOLIOS -N- RegistradaEn\nRegistradaEn -1- LIBROS\n\n@endchen\n&quot;,&#xa;  &quot;format&quot;: &quot;svg&quot;&#xa;}" id="LPydUPZ1WBn_LNhjzAiS-1">
          <mxCell style="shape=image;noLabel=1;verticalAlign=top;aspect=fixed;imageAspect=0;image=data:image/svg+xml,PD94bWwgdmVyc2lvbj0iMS4wIiBlbmNvZGluZz0idXMtYXNjaWkiIHN0YW5kYWxvbmU9Im5vIj8+PHN2ZyB4bWxucz0iaHR0cDovL3d3dy53My5vcmcvMjAwMC9zdmciIHhtbG5zOnhsaW5rPSJodHRwOi8vd3d3LnczLm9yZy8xOTk5L3hsaW5rIiBjb250ZW50U3R5bGVUeXBlPSJ0ZXh0L2NzcyIgaGVpZ2h0PSI5NDdweCIgcHJlc2VydmVBc3BlY3RSYXRpbz0ibm9uZSIgc3R5bGU9IndpZHRoOjQ0NTJweDtoZWlnaHQ6OTQ3cHg7YmFja2dyb3VuZDojRkZGRkZGOyIgdmVyc2lvbj0iMS4xIiB2aWV3Qm94PSIwIDAgNDQ1MiA5NDciIHdpZHRoPSI0NDUycHgiIHpvb21BbmRQYW49Im1hZ25pZnkiPjxkZWZzLz48Zz48ZyBpZD0iRklOQ0FTIj48cmVjdCBmaWxsPSIjRjFGMUYxIiBoZWlnaHQ9IjM0Ljk4NDQiIHN0eWxlPSJzdHJva2U6IzE4MTgxODtzdHJva2Utd2lkdGg6MC41OyIgd2lkdGg9IjYyIiB4PSI4OTQiIHk9IjEwNyIvPjx0ZXh0IGZpbGw9IiMwMDAwMDAiIGZvbnQtZmFtaWx5PSJzYW5zLXNlcmlmIiBmb250LXNpemU9IjE0IiBsZW5ndGhBZGp1c3Q9InNwYWNpbmciIHRleHRMZW5ndGg9IjQyIiB4PSI5MDQiIHk9IjEzMC4yMzQ0Ij5GSU5DQVM8L3RleHQ+PC9nPjxnIGlkPSJGSU5DQVMvaWQ6IGludCI+PGVsbGlwc2UgY3g9IjExOC4xNDgyIiBjeT0iMjYuMDk1NiIgZmlsbD0iI0YxRjFGMSIgcng9IjM3LjY0ODIiIHJ5PSIxMy41OTU2IiBzdHlsZT0ic3Ryb2tlOiMxODE4MTg7c3Ryb2tlLXdpZHRoOjAuNTsiLz48dGV4dCBmaWxsPSIjMDAwMDAwIiBmb250LWZhbWlseT0ic2Fucy1zZXJpZiIgZm9udC1zaXplPSIxNCIgbGVuZ3RoQWRqdXN0PSJzcGFjaW5nIiB0ZXh0TGVuZ3RoPSI0OSIgeD0iOTMuNjQ4MiIgeT0iMzEuNzM0NCI+aWQ6IGludDwvdGV4dD48L2c+PGcgaWQ9IkZJTkNBUy9udW1lcm9fZmluY2E6IGludCI+PGVsbGlwc2UgY3g9IjI2NC4yMzQyIiBjeT0iMjYuMTQ2OCIgZmlsbD0iI0YxRjFGMSIgcng9IjczLjczNDIiIHJ5PSIxNy4xNDY4IiBzdHlsZT0ic3Ryb2tlOiMxODE4MTg7c3Ryb2tlLXdpZHRoOjAuNTsiLz48dGV4dCBmaWxsPSIjMDAwMDAwIiBmb250LWZhbWlseT0ic2Fucy1zZXJpZiIgZm9udC1zaXplPSIxNCIgbGVuZ3RoQWRqdXN0PSJzcGFjaW5nIiB0ZXh0TGVuZ3RoPSIxMjAiIHg9IjIwNC4yMzQyIiB5PSIyOC4yMzQ0Ij5udW1lcm9fZmluY2E6IGludDwvdGV4dD48L2c+PGcgaWQ9IkZJTkNBUy9mb2xpb19pZDogaW50Ij48ZWxsaXBzZSBjeD0iNDM0LjkzNyIgY3k9IjI1Ljc4NzQiIGZpbGw9IiNGMUYxRjEiIHJ4PSI2MS45MzciIHJ5PSIxNC43ODc0IiBzdHlsZT0ic3Ryb2tlOiMxODE4MTg7c3Ryb2tlLXdpZHRoOjAuNTsiLz48dGV4dCBmaWxsPSIjMDAwMDAwIiBmb250LWZhbWlseT0ic2Fucy1zZXJpZiIgZm9udC1zaXplPSIxNCIgbGVuZ3RoQWRqdXN0PSJzcGFjaW5nIiB0ZXh0TGVuZ3RoPSI5MSIgeD0iMzg5LjQzNyIgeT0iMzAuMjM0NCI+Zm9saW9faWQ6IGludDwvdGV4dD48L2c+PGcgaWQ9IkZJTkNBUy9tdW5pY2lwaW9faWQ6IGludCI+PGVsbGlwc2UgY3g9IjYwNi4yMzQyIiBjeT0iMjYuMTQ2OCIgZmlsbD0iI0YxRjFGMSIgcng9IjczLjczNDIiIHJ5PSIxNy4xNDY4IiBzdHlsZT0ic3Ryb2tlOiMxODE4MTg7c3Ryb2tlLXdpZHRoOjAuNTsiLz48dGV4dCBmaWxsPSIjMDAwMDAwIiBmb250LWZhbWlseT0ic2Fucy1zZXJpZiIgZm9udC1zaXplPSIxNCIgbGVuZ3RoQWRqdXN0PSJzcGFjaW5nIiB0ZXh0TGVuZ3RoPSIxMjAiIHg9IjU0Ni4yMzQyIiB5PSIyOC4yMzQ0Ij5tdW5pY2lwaW9faWQ6IGludDwvdGV4dD48L2c+PGcgaWQ9IkZJTkNBUy9hcmVhX2lkOiBpbnQiPjxlbGxpcHNlIGN4PSI3NzMuNzc5IiBjeT0iMjUuNzU1OCIgZmlsbD0iI0YxRjFGMSIgcng9IjU5LjI3OSIgcnk9IjE0LjI1NTgiIHN0eWxlPSJzdHJva2U6IzE4MTgxODtzdHJva2Utd2lkdGg6MC41OyIvPjx0ZXh0IGZpbGw9IiMwMDAwMDAiIGZvbnQtZmFtaWx5PSJzYW5zLXNlcmlmIiBmb250LXNpemU9IjE0IiBsZW5ndGhBZGp1c3Q9InNwYWNpbmciIHRleHRMZW5ndGg9Ijg0IiB4PSI3MzEuNzc5IiB5PSIzMC43MzQ0Ij5hcmVhX2lkOiBpbnQ8L3RleHQ+PC9nPjxnIGlkPSJGSU5DQVMvdXNvX2lkOiBpbnQiPjxlbGxpcHNlIGN4PSI5MjUuMjE3NSIgY3k9IjI2LjI0MzUiIGZpbGw9IiNGMUYxRjEiIHJ4PSI1Ni43MTc1IiByeT0iMTMuNzQzNSIgc3R5bGU9InN0cm9rZTojMTgxODE4O3N0cm9rZS13aWR0aDowLjU7Ii8+PHRleHQgZmlsbD0iIzAwMDAwMCIgZm9udC1mYW1pbHk9InNhbnMtc2VyaWYiIGZvbnQtc2l6ZT0iMTQiIGxlbmd0aEFkanVzdD0ic3BhY2luZyIgdGV4dExlbmd0aD0iNzciIHg9Ijg4Ni43MTc1IiB5PSIzMS43MzQ0Ij51c29faWQ6IGludDwvdGV4dD48L2c+PGcgaWQ9IkZJTkNBUy9wbGFub19pZDogaW50Ij48ZWxsaXBzZSBjeD0iMTA3OC45MzciIGN5PSIyNS43ODc0IiBmaWxsPSIjRjFGMUYxIiByeD0iNjEuOTM3IiByeT0iMTQuNzg3NCIgc3R5bGU9InN0cm9rZTojMTgxODE4O3N0cm9rZS13aWR0aDowLjU7Ii8+PHRleHQgZmlsbD0iIzAwMDAwMCIgZm9udC1mYW1pbHk9InNhbnMtc2VyaWYiIGZvbnQtc2l6ZT0iMTQiIGxlbmd0aEFkanVzdD0ic3BhY2luZyIgdGV4dExlbmd0aD0iOTEiIHg9IjEwMzMuNDM3IiB5PSIzMC4yMzQ0Ij5wbGFub19pZDogaW50PC90ZXh0PjwvZz48ZyBpZD0iRklOQ0FTL2RpcmVjY2lvbjogc3RyaW5nIj48ZWxsaXBzZSBjeD0iMTI0OS44MTA1IiBjeT0iMjYuMDYyMSIgZmlsbD0iI0YxRjFGMSIgcng9IjczLjMxMDUiIHJ5PSIxNy4wNjIxIiBzdHlsZT0ic3Ryb2tlOiMxODE4MTg7c3Ryb2tlLXdpZHRoOjAuNTsiLz48dGV4dCBmaWxsPSIjMDAwMDAwIiBmb250LWZhbWlseT0ic2Fucy1zZXJpZiIgZm9udC1zaXplPSIxNCIgbGVuZ3RoQWRqdXN0PSJzcGFjaW5nIiB0ZXh0TGVuZ3RoPSIxMTkiIHg9IjExOTAuMzEwNSIgeT0iMjguMjM0NCI+ZGlyZWNjaW9uOiBzdHJpbmc8L3RleHQ+PC9nPjxnIGlkPSJGSU5DQVMvYXJlYV90b3RhbDogZGVjaW1hbCI+PGVsbGlwc2UgY3g9IjE0MzguNzYxNSIgY3k9IjI1Ljg1MjMiIGZpbGw9IiNGMUYxRjEiIHJ4PSI3OS43NjE1IiByeT0iMTguMzUyMyIgc3R5bGU9InN0cm9rZTojMTgxODE4O3N0cm9rZS13aWR0aDowLjU7Ii8+PHRleHQgZmlsbD0iIzAwMDAwMCIgZm9udC1mYW1pbHk9InNhbnMtc2VyaWYiIGZvbnQtc2l6ZT0iMTQiIGxlbmd0aEFkanVzdD0ic3BhY2luZyIgdGV4dExlbmd0aD0iMTM0IiB4PSIxMzcxLjc2MTUiIHk9IjI2LjczNDQiPmFyZWFfdG90YWw6IGRlY2ltYWw8L3RleHQ+PC9nPjxnIGlkPSJGSU5DQVMvdGlwb190ZW5lbmNpYTogc3RyaW5nIj48ZWxsaXBzZSBjeD0iMTYzOS45OTU5IiBjeT0iMjUuOTk5MiIgZmlsbD0iI0YxRjFGMSIgcng9Ijg1LjQ5NTkiIHJ5PSIxOS40OTkyIiBzdHlsZT0ic3Ryb2tlOiMxODE4MTg7c3Ryb2tlLXdpZHRoOjAuNTsiLz48dGV4dCBmaWxsPSIjMDAwMDAwIiBmb250LWZhbWlseT0ic2Fucy1zZXJpZiIgZm9udC1zaXplPSIxNCIgbGVuZ3RoQWRqdXN0PSJzcGFjaW5nIiB0ZXh0TGVuZ3RoPSIxNDciIHg9IjE1NjYuNDk1OSIgeT0iMjUuNzM0NCI+dGlwb190ZW5lbmNpYTogc3RyaW5nPC90ZXh0PjwvZz48ZyBpZD0iRklOQ0FTL2VzdGFkbzogc3RyaW5nIj48ZWxsaXBzZSBjeD0iMTgyNS4xNzkyIiBjeT0iMjUuODM1OCIgZmlsbD0iI0YxRjFGMSIgcng9IjY0LjY3OTIiIHJ5PSIxNS4zMzU4IiBzdHlsZT0ic3Ryb2tlOiMxODE4MTg7c3Ryb2tlLXdpZHRoOjAuNTsiLz48dGV4dCBmaWxsPSIjMDAwMDAwIiBmb250LWZhbWlseT0ic2Fucy1zZXJpZiIgZm9udC1zaXplPSIxNCIgbGVuZ3RoQWRqdXN0PSJzcGFjaW5nIiB0ZXh0TGVuZ3RoPSI5OCIgeD0iMTc3Ni4xNzkyIiB5PSIyOS43MzQ0Ij5lc3RhZG86IHN0cmluZzwvdGV4dD48L2c+PGcgaWQ9IkxJQlJPUyI+PHJlY3QgZmlsbD0iI0YxRjFGMSIgaGVpZ2h0PSIzNC45ODQ0IiBzdHlsZT0ic3Ryb2tlOiMxODE4MTg7c3Ryb2tlLXdpZHRoOjAuNTsiIHdpZHRoPSI2MiIgeD0iMzIyNyIgeT0iNTIzIi8+PHRleHQgZmlsbD0iIzAwMDAwMCIgZm9udC1mYW1pbHk9InNhbnMtc2VyaWYiIGZvbnQtc2l6ZT0iMTQiIGxlbmd0aEFkanVzdD0ic3BhY2luZyIgdGV4dExlbmd0aD0iNDIiIHg9IjMyMzciIHk9IjU0Ni4yMzQ0Ij5MSUJST1M8L3RleHQ+PC9nPjxnIGlkPSJMSUJST1MvaWQ6IGludCI+PGVsbGlwc2UgY3g9IjI5MzcuMTQ4MiIgY3k9IjQ0MS4wOTU2IiBmaWxsPSIjRjFGMUYxIiByeD0iMzcuNjQ4MiIgcnk9IjEzLjU5NTYiIHN0eWxlPSJzdHJva2U6IzE4MTgxODtzdHJva2Utd2lkdGg6MC41OyIvPjx0ZXh0IGZpbGw9IiMwMDAwMDAiIGZvbnQtZmFtaWx5PSJzYW5zLXNlcmlmIiBmb250LXNpemU9IjE0IiBsZW5ndGhBZGp1c3Q9InNwYWNpbmciIHRleHRMZW5ndGg9IjQ5IiB4PSIyOTEyLjY0ODIiIHk9IjQ0Ni43MzQ0Ij5pZDogaW50PC90ZXh0PjwvZz48ZyBpZD0iTElCUk9TL25vbWJyZTogc3RyaW5nIj48ZWxsaXBzZSBjeD0iMzA3NS4wNzcxIiBjeT0iNDQwLjkxNTQiIGZpbGw9IiNGMUYxRjEiIHJ4PSI2NS4wNzcxIiByeT0iMTUuNDE1NCIgc3R5bGU9InN0cm9rZTojMTgxODE4O3N0cm9rZS13aWR0aDowLjU7Ii8+PHRleHQgZmlsbD0iIzAwMDAwMCIgZm9udC1mYW1pbHk9InNhbnMtc2VyaWYiIGZvbnQtc2l6ZT0iMTQiIGxlbmd0aEFkanVzdD0ic3BhY2luZyIgdGV4dExlbmd0aD0iOTkiIHg9IjMwMjUuNTc3MSIgeT0iNDQ0LjczNDQiPm5vbWJyZTogc3RyaW5nPC90ZXh0PjwvZz48ZyBpZD0iTElCUk9TL2RlcGFydGFtZW50b19pZDogaW50Ij48ZWxsaXBzZSBjeD0iMzI1Ny44MzQ3IiBjeT0iNDQwLjk2NjkiIGZpbGw9IiNGMUYxRjEiIHJ4PSI4Mi44MzQ3IiByeT0iMTguOTY2OSIgc3R5bGU9InN0cm9rZTojMTgxODE4O3N0cm9rZS13aWR0aDowLjU7Ii8+PHRleHQgZmlsbD0iIzAwMDAwMCIgZm9udC1mYW1pbHk9InNhbnMtc2VyaWYiIGZvbnQtc2l6ZT0iMTQiIGxlbmd0aEFkanVzdD0ic3BhY2luZyIgdGV4dExlbmd0aD0iMTQxIiB4PSIzMTg3LjMzNDciIHk9IjQ0MS4yMzQ0Ij5kZXBhcnRhbWVudG9faWQ6IGludDwvdGV4dD48L2c+PGcgaWQ9IkxJQlJPUy9mZWNoYV9jcmVhY2lvbjogZGF0ZSI+PGVsbGlwc2UgY3g9IjM0NTguODkzNSIgY3k9IjQ0MC44Nzg3IiBmaWxsPSIjRjFGMUYxIiByeD0iODIuMzkzNSIgcnk9IjE4Ljg3ODciIHN0eWxlPSJzdHJva2U6IzE4MTgxODtzdHJva2Utd2lkdGg6MC41OyIvPjx0ZXh0IGZpbGw9IiMwMDAwMDAiIGZvbnQtZmFtaWx5PSJzYW5zLXNlcmlmIiBmb250LXNpemU9IjE0IiBsZW5ndGhBZGp1c3Q9InNwYWNpbmciIHRleHRMZW5ndGg9IjE0MCIgeD0iMzM4OC44OTM1IiB5PSI0NDEuMjM0NCI+ZmVjaGFfY3JlYWNpb246IGRhdGU8L3RleHQ+PC9nPjxnIGlkPSJGT0xJT1MiPjxyZWN0IGZpbGw9IiNGMUYxRjEiIGhlaWdodD0iMzQuOTg0NCIgc3R5bGU9InN0cm9rZTojMTgxODE4O3N0cm9rZS13aWR0aDowLjU7IiB3aWR0aD0iNjIiIHg9IjM1ODEiIHk9IjEwNyIvPjx0ZXh0IGZpbGw9IiMwMDAwMDAiIGZvbnQtZmFtaWx5PSJzYW5zLXNlcmlmIiBmb250LXNpemU9IjE0IiBsZW5ndGhBZGp1c3Q9InNwYWNpbmciIHRleHRMZW5ndGg9IjQyIiB4PSIzNTkxIiB5PSIxMzAuMjM0NCI+Rk9MSU9TPC90ZXh0PjwvZz48ZyBpZD0iRk9MSU9TL2lkOiBpbnQiPjxlbGxpcHNlIGN4PSIzNDAzLjE0ODIiIGN5PSIyNi4wOTU2IiBmaWxsPSIjRjFGMUYxIiByeD0iMzcuNjQ4MiIgcnk9IjEzLjU5NTYiIHN0eWxlPSJzdHJva2U6IzE4MTgxODtzdHJva2Utd2lkdGg6MC41OyIvPjx0ZXh0IGZpbGw9IiMwMDAwMDAiIGZvbnQtZmFtaWx5PSJzYW5zLXNlcmlmIiBmb250LXNpemU9IjE0IiBsZW5ndGhBZGp1c3Q9InNwYWNpbmciIHRleHRMZW5ndGg9IjQ5IiB4PSIzMzc4LjY0ODIiIHk9IjMxLjczNDQiPmlkOiBpbnQ8L3RleHQ+PC9nPjxnIGlkPSJGT0xJT1MvbGlicm9faWQ6IGludCI+PGVsbGlwc2UgY3g9IjM1MzcuOTM3IiBjeT0iMjUuNzg3NCIgZmlsbD0iI0YxRjFGMSIgcng9IjYxLjkzNyIgcnk9IjE0Ljc4NzQiIHN0eWxlPSJzdHJva2U6IzE4MTgxODtzdHJva2Utd2lkdGg6MC41OyIvPjx0ZXh0IGZpbGw9IiMwMDAwMDAiIGZvbnQtZmFtaWx5PSJzYW5zLXNlcmlmIiBmb250LXNpemU9IjE0IiBsZW5ndGhBZGp1c3Q9InNwYWNpbmciIHRleHRMZW5ndGg9IjkxIiB4PSIzNDkyLjQzNyIgeT0iMzAuMjM0NCI+bGlicm9faWQ6IGludDwvdGV4dD48L2c+PGcgaWQ9IkZPTElPUy9udW1lcm9fZm9saW86IGludCI+PGVsbGlwc2UgY3g9IjM3MDkuMjM0MiIgY3k9IjI2LjE0NjgiIGZpbGw9IiNGMUYxRjEiIHJ4PSI3My43MzQyIiByeT0iMTcuMTQ2OCIgc3R5bGU9InN0cm9rZTojMTgxODE4O3N0cm9rZS13aWR0aDowLjU7Ii8+PHRleHQgZmlsbD0iIzAwMDAwMCIgZm9udC1mYW1pbHk9InNhbnMtc2VyaWYiIGZvbnQtc2l6ZT0iMTQiIGxlbmd0aEFkanVzdD0ic3BhY2luZyIgdGV4dExlbmd0aD0iMTIwIiB4PSIzNjQ5LjIzNDIiIHk9IjI4LjIzNDQiPm51bWVyb19mb2xpbzogaW50PC90ZXh0PjwvZz48ZyBpZD0iRk9MSU9TL2Rlc2NyaXBjaW9uOiBzdHJpbmciPjxlbGxpcHNlIGN4PSIzODk2LjgyNTQiIGN5PSIyNS43NjUxIiBmaWxsPSIjRjFGMUYxIiByeD0iNzkuMzI1NCIgcnk9IjE4LjI2NTEiIHN0eWxlPSJzdHJva2U6IzE4MTgxODtzdHJva2Utd2lkdGg6MC41OyIvPjx0ZXh0IGZpbGw9IiMwMDAwMDAiIGZvbnQtZmFtaWx5PSJzYW5zLXNlcmlmIiBmb250LXNpemU9IjE0IiBsZW5ndGhBZGp1c3Q9InNwYWNpbmciIHRleHRMZW5ndGg9IjEzMyIgeD0iMzgzMC4zMjU0IiB5PSIyNi43MzQ0Ij5kZXNjcmlwY2lvbjogc3RyaW5nPC90ZXh0PjwvZz48ZyBpZD0iREVQQVJUQU1FTlRPUyI+PHJlY3QgZmlsbD0iI0YxRjFGMSIgaGVpZ2h0PSIzNC45ODQ0IiBzdHlsZT0ic3Ryb2tlOiMxODE4MTg7c3Ryb2tlLXdpZHRoOjAuNTsiIHdpZHRoPSIxMTEiIHg9IjE1MC41IiB5PSI5MDciLz48dGV4dCBmaWxsPSIjMDAwMDAwIiBmb250LWZhbWlseT0ic2Fucy1zZXJpZiIgZm9udC1zaXplPSIxNCIgbGVuZ3RoQWRqdXN0PSJzcGFjaW5nIiB0ZXh0TGVuZ3RoPSI5MSIgeD0iMTYwLjUiIHk9IjkzMC4yMzQ0Ij5ERVBBUlRBTUVOVE9TPC90ZXh0PjwvZz48ZyBpZD0iREVQQVJUQU1FTlRPUy9pZDogaW50Ij48ZWxsaXBzZSBjeD0iNjguMTQ4MiIgY3k9IjgzMC41OTU2IiBmaWxsPSIjRjFGMUYxIiByeD0iMzcuNjQ4MiIgcnk9IjEzLjU5NTYiIHN0eWxlPSJzdHJva2U6IzE4MTgxODtzdHJva2Utd2lkdGg6MC41OyIvPjx0ZXh0IGZpbGw9IiMwMDAwMDAiIGZvbnQtZmFtaWx5PSJzYW5zLXNlcmlmIiBmb250LXNpemU9IjE0IiBsZW5ndGhBZGp1c3Q9InNwYWNpbmciIHRleHRMZW5ndGg9IjQ5IiB4PSI0My42NDgyIiB5PSI4MzYuMjM0NCI+aWQ6IGludDwvdGV4dD48L2c+PGcgaWQ9IkRFUEFSVEFNRU5UT1Mvbm9tYnJlOiBzdHJpbmciPjxlbGxpcHNlIGN4PSIyMDYuMDc3MSIgY3k9IjgzMC40MTU0IiBmaWxsPSIjRjFGMUYxIiByeD0iNjUuMDc3MSIgcnk9IjE1LjQxNTQiIHN0eWxlPSJzdHJva2U6IzE4MTgxODtzdHJva2Utd2lkdGg6MC41OyIvPjx0ZXh0IGZpbGw9IiMwMDAwMDAiIGZvbnQtZmFtaWx5PSJzYW5zLXNlcmlmIiBmb250LXNpemU9IjE0IiBsZW5ndGhBZGp1c3Q9InNwYWNpbmciIHRleHRMZW5ndGg9Ijk5IiB4PSIxNTYuNTc3MSIgeT0iODM0LjIzNDQiPm5vbWJyZTogc3RyaW5nPC90ZXh0PjwvZz48ZyBpZD0iTVVOSUNJUElPUyI+PHJlY3QgZmlsbD0iI0YxRjFGMSIgaGVpZ2h0PSIzNC45ODQ0IiBzdHlsZT0ic3Ryb2tlOiMxODE4MTg7c3Ryb2tlLXdpZHRoOjAuNTsiIHdpZHRoPSI5MCIgeD0iMjk2IiB5PSI1MjMiLz48dGV4dCBmaWxsPSIjMDAwMDAwIiBmb250LWZhbWlseT0ic2Fucy1zZXJpZiIgZm9udC1zaXplPSIxNCIgbGVuZ3RoQWRqdXN0PSJzcGFjaW5nIiB0ZXh0TGVuZ3RoPSI3MCIgeD0iMzA2IiB5PSI1NDYuMjM0NCI+TVVOSUNJUElPUzwvdGV4dD48L2c+PGcgaWQ9Ik1VTklDSVBJT1MvaWQ6IGludCI+PGVsbGlwc2UgY3g9IjQxMC4xNDgyIiBjeT0iNDQxLjA5NTYiIGZpbGw9IiNGMUYxRjEiIHJ4PSIzNy42NDgyIiByeT0iMTMuNTk1NiIgc3R5bGU9InN0cm9rZTojMTgxODE4O3N0cm9rZS13aWR0aDowLjU7Ii8+PHRleHQgZmlsbD0iIzAwMDAwMCIgZm9udC1mYW1pbHk9InNhbnMtc2VyaWYiIGZvbnQtc2l6ZT0iMTQiIGxlbmd0aEFkanVzdD0ic3BhY2luZyIgdGV4dExlbmd0aD0iNDkiIHg9IjM4NS42NDgyIiB5PSI0NDYuNzM0NCI+aWQ6IGludDwvdGV4dD48L2c+PGcgaWQ9Ik1VTklDSVBJT1MvZGVwYXJ0YW1lbnRvX2lkOiBpbnQiPjxlbGxpcHNlIGN4PSI4OC44MzQ3IiBjeT0iNDQwLjk2NjkiIGZpbGw9IiNGMUYxRjEiIHJ4PSI4Mi44MzQ3IiByeT0iMTguOTY2OSIgc3R5bGU9InN0cm9rZTojMTgxODE4O3N0cm9rZS13aWR0aDowLjU7Ii8+PHRleHQgZmlsbD0iIzAwMDAwMCIgZm9udC1mYW1pbHk9InNhbnMtc2VyaWYiIGZvbnQtc2l6ZT0iMTQiIGxlbmd0aEFkanVzdD0ic3BhY2luZyIgdGV4dExlbmd0aD0iMTQxIiB4PSIxOC4zMzQ3IiB5PSI0NDEuMjM0NCI+ZGVwYXJ0YW1lbnRvX2lkOiBpbnQ8L3RleHQ+PC9nPjxnIGlkPSJNVU5JQ0lQSU9TL25vbWJyZTogc3RyaW5nIj48ZWxsaXBzZSBjeD0iMjcyLjA3NzEiIGN5PSI0NDAuOTE1NCIgZmlsbD0iI0YxRjFGMSIgcng9IjY1LjA3NzEiIHJ5PSIxNS40MTU0IiBzdHlsZT0ic3Ryb2tlOiMxODE4MTg7c3Ryb2tlLXdpZHRoOjAuNTsiLz48dGV4dCBmaWxsPSIjMDAwMDAwIiBmb250LWZhbWlseT0ic2Fucy1zZXJpZiIgZm9udC1zaXplPSIxNCIgbGVuZ3RoQWRqdXN0PSJzcGFjaW5nIiB0ZXh0TGVuZ3RoPSI5OSIgeD0iMjIyLjU3NzEiIHk9IjQ0NC43MzQ0Ij5ub21icmU6IHN0cmluZzwvdGV4dD48L2c+PGcgaWQ9IkFSRUFTIj48cmVjdCBmaWxsPSIjRjFGMUYxIiBoZWlnaHQ9IjM0Ljk4NDQiIHN0eWxlPSJzdHJva2U6IzE4MTgxODtzdHJva2Utd2lkdGg6MC41OyIgd2lkdGg9IjU1IiB4PSI0MTU5LjUiIHk9IjEwNyIvPjx0ZXh0IGZpbGw9IiMwMDAwMDAiIGZvbnQtZmFtaWx5PSJzYW5zLXNlcmlmIiBmb250LXNpemU9IjE0IiBsZW5ndGhBZGp1c3Q9InNwYWNpbmciIHRleHRMZW5ndGg9IjM1IiB4PSI0MTY5LjUiIHk9IjEzMC4yMzQ0Ij5BUkVBUzwvdGV4dD48L2c+PGcgaWQ9IkFSRUFTL2lkOiBpbnQiPjxlbGxpcHNlIGN4PSI0MDQ5LjE0ODIiIGN5PSIyNi4wOTU2IiBmaWxsPSIjRjFGMUYxIiByeD0iMzcuNjQ4MiIgcnk9IjEzLjU5NTYiIHN0eWxlPSJzdHJva2U6IzE4MTgxODtzdHJva2Utd2lkdGg6MC41OyIvPjx0ZXh0IGZpbGw9IiMwMDAwMDAiIGZvbnQtZmFtaWx5PSJzYW5zLXNlcmlmIiBmb250LXNpemU9IjE0IiBsZW5ndGhBZGp1c3Q9InNwYWNpbmciIHRleHRMZW5ndGg9IjQ5IiB4PSI0MDI0LjY0ODIiIHk9IjMxLjczNDQiPmlkOiBpbnQ8L3RleHQ+PC9nPjxnIGlkPSJBUkVBUy9ub21icmU6IHN0cmluZyI+PGVsbGlwc2UgY3g9IjQxODcuMDc3MSIgY3k9IjI1LjkxNTQiIGZpbGw9IiNGMUYxRjEiIHJ4PSI2NS4wNzcxIiByeT0iMTUuNDE1NCIgc3R5bGU9InN0cm9rZTojMTgxODE4O3N0cm9rZS13aWR0aDowLjU7Ii8+PHRleHQgZmlsbD0iIzAwMDAwMCIgZm9udC1mYW1pbHk9InNhbnMtc2VyaWYiIGZvbnQtc2l6ZT0iMTQiIGxlbmd0aEFkanVzdD0ic3BhY2luZyIgdGV4dExlbmd0aD0iOTkiIHg9IjQxMzcuNTc3MSIgeT0iMjkuNzM0NCI+bm9tYnJlOiBzdHJpbmc8L3RleHQ+PC9nPjxnIGlkPSJBUkVBUy9kZXNjcmlwY2lvbjogc3RyaW5nIj48ZWxsaXBzZSBjeD0iNDM2Ni44MjU0IiBjeT0iMjUuNzY1MSIgZmlsbD0iI0YxRjFGMSIgcng9Ijc5LjMyNTQiIHJ5PSIxOC4yNjUxIiBzdHlsZT0ic3Ryb2tlOiMxODE4MTg7c3Ryb2tlLXdpZHRoOjAuNTsiLz48dGV4dCBmaWxsPSIjMDAwMDAwIiBmb250LWZhbWlseT0ic2Fucy1zZXJpZiIgZm9udC1zaXplPSIxNCIgbGVuZ3RoQWRqdXN0PSJzcGFjaW5nIiB0ZXh0TGVuZ3RoPSIxMzMiIHg9IjQzMDAuMzI1NCIgeT0iMjYuNzM0NCI+ZGVzY3JpcGNpb246IHN0cmluZzwvdGV4dD48L2c+PGcgaWQ9IlVTT1MiPjxyZWN0IGZpbGw9IiNGMUYxRjEiIGhlaWdodD0iMzQuOTg0NCIgc3R5bGU9InN0cm9rZTojMTgxODE4O3N0cm9rZS13aWR0aDowLjU7IiB3aWR0aD0iNDgiIHg9IjcyOSIgeT0iNTIzIi8+PHRleHQgZmlsbD0iIzAwMDAwMCIgZm9udC1mYW1pbHk9InNhbnMtc2VyaWYiIGZvbnQtc2l6ZT0iMTQiIGxlbmd0aEFkanVzdD0ic3BhY2luZyIgdGV4dExlbmd0aD0iMjgiIHg9IjczOSIgeT0iNTQ2LjIzNDQiPlVTT1M8L3RleHQ+PC9nPjxnIGlkPSJVU09TL2lkOiBpbnQiPjxlbGxpcHNlIGN4PSI3NTMuMTQ4MiIgY3k9IjQ0MS4wOTU2IiBmaWxsPSIjRjFGMUYxIiByeD0iMzcuNjQ4MiIgcnk9IjEzLjU5NTYiIHN0eWxlPSJzdHJva2U6IzE4MTgxODtzdHJva2Utd2lkdGg6MC41OyIvPjx0ZXh0IGZpbGw9IiMwMDAwMDAiIGZvbnQtZmFtaWx5PSJzYW5zLXNlcmlmIiBmb250LXNpemU9IjE0IiBsZW5ndGhBZGp1c3Q9InNwYWNpbmciIHRleHRMZW5ndGg9IjQ5IiB4PSI3MjguNjQ4MiIgeT0iNDQ2LjczNDQiPmlkOiBpbnQ8L3RleHQ+PC9nPjxnIGlkPSJVU09TL3RpcG86IHN0cmluZyI+PGVsbGlwc2UgY3g9IjYyMC43NzkiIGN5PSI0NDAuNzU1OCIgZmlsbD0iI0YxRjFGMSIgcng9IjU5LjI3OSIgcnk9IjE0LjI1NTgiIHN0eWxlPSJzdHJva2U6IzE4MTgxODtzdHJva2Utd2lkdGg6MC41OyIvPjx0ZXh0IGZpbGw9IiMwMDAwMDAiIGZvbnQtZmFtaWx5PSJzYW5zLXNlcmlmIiBmb250LXNpemU9IjE0IiBsZW5ndGhBZGp1c3Q9InNwYWNpbmciIHRleHRMZW5ndGg9Ijg0IiB4PSI1NzguNzc5IiB5PSI0NDUuNzM0NCI+dGlwbzogc3RyaW5nPC90ZXh0PjwvZz48ZyBpZD0iUExBTk9TIj48cmVjdCBmaWxsPSIjRjFGMUYxIiBoZWlnaHQ9IjM0Ljk4NDQiIHN0eWxlPSJzdHJva2U6IzE4MTgxODtzdHJva2Utd2lkdGg6MC41OyIgd2lkdGg9IjYyIiB4PSIxNDc0IiB5PSI1MjMiLz48dGV4dCBmaWxsPSIjMDAwMDAwIiBmb250LWZhbWlseT0ic2Fucy1zZXJpZiIgZm9udC1zaXplPSIxNCIgbGVuZ3RoQWRqdXN0PSJzcGFjaW5nIiB0ZXh0TGVuZ3RoPSI0MiIgeD0iMTQ4NCIgeT0iNTQ2LjIzNDQiPlBMQU5PUzwvdGV4dD48L2c+PGcgaWQ9IlBMQU5PUy9pZDogaW50Ij48ZWxsaXBzZSBjeD0iOTQyLjE0ODIiIGN5PSI0NDEuMDk1NiIgZmlsbD0iI0YxRjFGMSIgcng9IjM3LjY0ODIiIHJ5PSIxMy41OTU2IiBzdHlsZT0ic3Ryb2tlOiMxODE4MTg7c3Ryb2tlLXdpZHRoOjAuNTsiLz48dGV4dCBmaWxsPSIjMDAwMDAwIiBmb250LWZhbWlseT0ic2Fucy1zZXJpZiIgZm9udC1zaXplPSIxNCIgbGVuZ3RoQWRqdXN0PSJzcGFjaW5nIiB0ZXh0TGVuZ3RoPSI0OSIgeD0iOTE3LjY0ODIiIHk9IjQ0Ni43MzQ0Ij5pZDogaW50PC90ZXh0PjwvZz48ZyBpZD0iUExBTk9TL251bWVyb19wbGFubzogc3RyaW5nIj48ZWxsaXBzZSBjeD0iMTA5Ny44MzQ3IiBjeT0iNDQwLjk2NjkiIGZpbGw9IiNGMUYxRjEiIHJ4PSI4Mi44MzQ3IiByeT0iMTguOTY2OSIgc3R5bGU9InN0cm9rZTojMTgxODE4O3N0cm9rZS13aWR0aDowLjU7Ii8+PHRleHQgZmlsbD0iIzAwMDAwMCIgZm9udC1mYW1pbHk9InNhbnMtc2VyaWYiIGZvbnQtc2l6ZT0iMTQiIGxlbmd0aEFkanVzdD0ic3BhY2luZyIgdGV4dExlbmd0aD0iMTQxIiB4PSIxMDI3LjMzNDciIHk9IjQ0MS4yMzQ0Ij5udW1lcm9fcGxhbm86IHN0cmluZzwvdGV4dD48L2c+PGcgaWQ9IlBMQU5PUy9hcmNoaXZvX3BsYW5vOiBzdHJpbmciPjxlbGxpcHNlIGN4PSIxMzAxLjk5NTkiIGN5PSI0NDAuOTk5MiIgZmlsbD0iI0YxRjFGMSIgcng9Ijg1LjQ5NTkiIHJ5PSIxOS40OTkyIiBzdHlsZT0ic3Ryb2tlOiMxODE4MTg7c3Ryb2tlLXdpZHRoOjAuNTsiLz48dGV4dCBmaWxsPSIjMDAwMDAwIiBmb250LWZhbWlseT0ic2Fucy1zZXJpZiIgZm9udC1zaXplPSIxNCIgbGVuZ3RoQWRqdXN0PSJzcGFjaW5nIiB0ZXh0TGVuZ3RoPSIxNDciIHg9IjEyMjguNDk1OSIgeT0iNDQwLjczNDQiPmFyY2hpdm9fcGxhbm86IHN0cmluZzwvdGV4dD48L2c+PGcgaWQ9IlBMQU5PUy9mZWNoYV9yZWdpc3RybzogZGF0ZSI+PGVsbGlwc2UgY3g9IjE1MDQuODkzNSIgY3k9IjQ0MC44Nzg3IiBmaWxsPSIjRjFGMUYxIiByeD0iODIuMzkzNSIgcnk9IjE4Ljg3ODciIHN0eWxlPSJzdHJva2U6IzE4MTgxODtzdHJva2Utd2lkdGg6MC41OyIvPjx0ZXh0IGZpbGw9IiMwMDAwMDAiIGZvbnQtZmFtaWx5PSJzYW5zLXNlcmlmIiBmb250LXNpemU9IjE0IiBsZW5ndGhBZGp1c3Q9InNwYWNpbmciIHRleHRMZW5ndGg9IjE0MCIgeD0iMTQzNC44OTM1IiB5PSI0NDEuMjM0NCI+ZmVjaGFfcmVnaXN0cm86IGRhdGU8L3RleHQ+PC9nPjxnIGlkPSJQTEFOT1MvZGVzY3JpcGNpb246IHN0cmluZyI+PGVsbGlwc2UgY3g9IjE3MDEuODI1NCIgY3k9IjQ0MC43NjUxIiBmaWxsPSIjRjFGMUYxIiByeD0iNzkuMzI1NCIgcnk9IjE4LjI2NTEiIHN0eWxlPSJzdHJva2U6IzE4MTgxODtzdHJva2Utd2lkdGg6MC41OyIvPjx0ZXh0IGZpbGw9IiMwMDAwMDAiIGZvbnQtZmFtaWx5PSJzYW5zLXNlcmlmIiBmb250LXNpemU9IjE0IiBsZW5ndGhBZGp1c3Q9InNwYWNpbmciIHRleHRMZW5ndGg9IjEzMyIgeD0iMTYzNS4zMjU0IiB5PSI0NDEuNzM0NCI+ZGVzY3JpcGNpb246IHN0cmluZzwvdGV4dD48L2c+PGcgaWQ9IlBMQU5PUy9lc3RhZG86IHN0cmluZyI+PGVsbGlwc2UgY3g9IjE5NjAuMTc5MiIgY3k9IjQ0MC44MzU4IiBmaWxsPSIjRjFGMUYxIiByeD0iNjQuNjc5MiIgcnk9IjE1LjMzNTgiIHN0eWxlPSJzdHJva2U6IzE4MTgxODtzdHJva2Utd2lkdGg6MC41OyIvPjx0ZXh0IGZpbGw9IiMwMDAwMDAiIGZvbnQtZmFtaWx5PSJzYW5zLXNlcmlmIiBmb250LXNpemU9IjE0IiBsZW5ndGhBZGp1c3Q9InNwYWNpbmciIHRleHRMZW5ndGg9Ijk4IiB4PSIxOTExLjE3OTIiIHk9IjQ0NC43MzQ0Ij5lc3RhZG86IHN0cmluZzwvdGV4dD48L2c+PGcgaWQ9IlBST1BJRVRBUklPUyI+PHJlY3QgZmlsbD0iI0YxRjFGMSIgaGVpZ2h0PSIzNC45ODQ0IiBzdHlsZT0ic3Ryb2tlOiMxODE4MTg7c3Ryb2tlLXdpZHRoOjAuNTsiIHdpZHRoPSIxMDQiIHg9IjI1MzQiIHk9IjEwNyIvPjx0ZXh0IGZpbGw9IiMwMDAwMDAiIGZvbnQtZmFtaWx5PSJzYW5zLXNlcmlmIiBmb250LXNpemU9IjE0IiBsZW5ndGhBZGp1c3Q9InNwYWNpbmciIHRleHRMZW5ndGg9Ijg0IiB4PSIyNTQ0IiB5PSIxMzAuMjM0NCI+UFJPUElFVEFSSU9TPC90ZXh0PjwvZz48ZyBpZD0iUFJPUElFVEFSSU9TL2lkOiBpbnQiPjxlbGxpcHNlIGN4PSIyOTA1LjE0ODIiIGN5PSIyNi4wOTU2IiBmaWxsPSIjRjFGMUYxIiByeD0iMzcuNjQ4MiIgcnk9IjEzLjU5NTYiIHN0eWxlPSJzdHJva2U6IzE4MTgxODtzdHJva2Utd2lkdGg6MC41OyIvPjx0ZXh0IGZpbGw9IiMwMDAwMDAiIGZvbnQtZmFtaWx5PSJzYW5zLXNlcmlmIiBmb250LXNpemU9IjE0IiBsZW5ndGhBZGp1c3Q9InNwYWNpbmciIHRleHRMZW5ndGg9IjQ5IiB4PSIyODgwLjY0ODIiIHk9IjMxLjczNDQiPmlkOiBpbnQ8L3RleHQ+PC9nPjxnIGlkPSJQUk9QSUVUQVJJT1Mvbm9tYnJlOiBzdHJpbmciPjxlbGxpcHNlIGN4PSIzMDQzLjA3NzEiIGN5PSIyNS45MTU0IiBmaWxsPSIjRjFGMUYxIiByeD0iNjUuMDc3MSIgcnk9IjE1LjQxNTQiIHN0eWxlPSJzdHJva2U6IzE4MTgxODtzdHJva2Utd2lkdGg6MC41OyIvPjx0ZXh0IGZpbGw9IiMwMDAwMDAiIGZvbnQtZmFtaWx5PSJzYW5zLXNlcmlmIiBmb250LXNpemU9IjE0IiBsZW5ndGhBZGp1c3Q9InNwYWNpbmciIHRleHRMZW5ndGg9Ijk5IiB4PSIyOTkzLjU3NzEiIHk9IjI5LjczNDQiPm5vbWJyZTogc3RyaW5nPC90ZXh0PjwvZz48ZyBpZD0iUFJPUElFVEFSSU9TL2RwaTogc3RyaW5nIj48ZWxsaXBzZSBjeD0iMzIwMC4yMTc1IiBjeT0iMjYuMjQzNSIgZmlsbD0iI0YxRjFGMSIgcng9IjU2LjcxNzUiIHJ5PSIxMy43NDM1IiBzdHlsZT0ic3Ryb2tlOiMxODE4MTg7c3Ryb2tlLXdpZHRoOjAuNTsiLz48dGV4dCBmaWxsPSIjMDAwMDAwIiBmb250LWZhbWlseT0ic2Fucy1zZXJpZiIgZm9udC1zaXplPSIxNCIgbGVuZ3RoQWRqdXN0PSJzcGFjaW5nIiB0ZXh0TGVuZ3RoPSI3NyIgeD0iMzE2MS43MTc1IiB5PSIzMS43MzQ0Ij5kcGk6IHN0cmluZzwvdGV4dD48L2c+PGcgaWQ9IlBST1BJRVRBUklPUy9kaXJlY2Npb246IHN0cmluZyI+PGVsbGlwc2UgY3g9IjIwMDkuODEwNSIgY3k9IjI2LjA2MjEiIGZpbGw9IiNGMUYxRjEiIHJ4PSI3My4zMTA1IiByeT0iMTcuMDYyMSIgc3R5bGU9InN0cm9rZTojMTgxODE4O3N0cm9rZS13aWR0aDowLjU7Ii8+PHRleHQgZmlsbD0iIzAwMDAwMCIgZm9udC1mYW1pbHk9InNhbnMtc2VyaWYiIGZvbnQtc2l6ZT0iMTQiIGxlbmd0aEFkanVzdD0ic3BhY2luZyIgdGV4dExlbmd0aD0iMTE5IiB4PSIxOTUwLjMxMDUiIHk9IjI4LjIzNDQiPmRpcmVjY2lvbjogc3RyaW5nPC90ZXh0PjwvZz48ZyBpZD0iUFJPUElFVEFSSU9TL3RlbGVmb25vOiBzdHJpbmciPjxlbGxpcHNlIGN4PSIyMTg4Ljg3NDUiIGN5PSIyNS45NzQ5IiBmaWxsPSIjRjFGMUYxIiByeD0iNzAuMzc0NSIgcnk9IjE2LjQ3NDkiIHN0eWxlPSJzdHJva2U6IzE4MTgxODtzdHJva2Utd2lkdGg6MC41OyIvPjx0ZXh0IGZpbGw9IiMwMDAwMDAiIGZvbnQtZmFtaWx5PSJzYW5zLXNlcmlmIiBmb250LXNpemU9IjE0IiBsZW5ndGhBZGp1c3Q9InNwYWNpbmciIHRleHRMZW5ndGg9IjExMiIgeD0iMjEzMi44NzQ1IiB5PSIyOC43MzQ0Ij50ZWxlZm9ubzogc3RyaW5nPC90ZXh0PjwvZz48ZyBpZD0iUFJPUElFVEFSSU9TL2VtYWlsOiBzdHJpbmciPjxlbGxpcHNlIGN4PSIyMzU2LjgyMzkiIGN5PSIyNS44NjQ4IiBmaWxsPSIjRjFGMUYxIiByeD0iNjIuMzIzOSIgcnk9IjE0Ljg2NDgiIHN0eWxlPSJzdHJva2U6IzE4MTgxODtzdHJva2Utd2lkdGg6MC41OyIvPjx0ZXh0IGZpbGw9IiMwMDAwMDAiIGZvbnQtZmFtaWx5PSJzYW5zLXNlcmlmIiBmb250LXNpemU9IjE0IiBsZW5ndGhBZGp1c3Q9InNwYWNpbmciIHRleHRMZW5ndGg9IjkyIiB4PSIyMzEwLjgyMzkiIHk9IjMwLjIzNDQiPmVtYWlsOiBzdHJpbmc8L3RleHQ+PC9nPjxnIGlkPSJQUk9QSUVUQVJJT1MvbmFjaW9uYWxpZGFkOiBzdHJpbmciPjxlbGxpcHNlIGN4PSIyNTM2Ljg5MzUiIGN5PSIyNS44Nzg3IiBmaWxsPSIjRjFGMUYxIiByeD0iODIuMzkzNSIgcnk9IjE4Ljg3ODciIHN0eWxlPSJzdHJva2U6IzE4MTgxODtzdHJva2Utd2lkdGg6MC41OyIvPjx0ZXh0IGZpbGw9IiMwMDAwMDAiIGZvbnQtZmFtaWx5PSJzYW5zLXNlcmlmIiBmb250LXNpemU9IjE0IiBsZW5ndGhBZGp1c3Q9InNwYWNpbmciIHRleHRMZW5ndGg9IjE0MCIgeD0iMjQ2Ni44OTM1IiB5PSIyNi4yMzQ0Ij5uYWNpb25hbGlkYWQ6IHN0cmluZzwvdGV4dD48L2c+PGcgaWQ9IlBST1BJRVRBUklPUy9mZWNoYV9uYWNpbWllbnRvOiBkYXRlIj48ZWxsaXBzZSBjeD0iMjc0NC4wNzg5IiBjeT0iMjYuMjE1OCIgZmlsbD0iI0YxRjFGMSIgcng9Ijg5LjA3ODkiIHJ5PSIyMC4yMTU4IiBzdHlsZT0ic3Ryb2tlOiMxODE4MTg7c3Ryb2tlLXdpZHRoOjAuNTsiLz48dGV4dCBmaWxsPSIjMDAwMDAwIiBmb250LWZhbWlseT0ic2Fucy1zZXJpZiIgZm9udC1zaXplPSIxNCIgbGVuZ3RoQWRqdXN0PSJzcGFjaW5nIiB0ZXh0TGVuZ3RoPSIxNTUiIHg9IjI2NjYuNTc4OSIgeT0iMjUuMjM0NCI+ZmVjaGFfbmFjaW1pZW50bzogZGF0ZTwvdGV4dD48L2c+PGcgaWQ9IkZJTkNBX1BST1BJRVRBUklPIj48cmVjdCBmaWxsPSIjRjFGMUYxIiBoZWlnaHQ9IjM0Ljk4NDQiIHN0eWxlPSJzdHJva2U6IzE4MTgxODtzdHJva2Utd2lkdGg6MC41OyIgd2lkdGg9IjEzOSIgeD0iMjQ3Ny41IiB5PSI1MjMiLz48dGV4dCBmaWxsPSIjMDAwMDAwIiBmb250LWZhbWlseT0ic2Fucy1zZXJpZiIgZm9udC1zaXplPSIxNCIgbGVuZ3RoQWRqdXN0PSJzcGFjaW5nIiB0ZXh0TGVuZ3RoPSIxMTkiIHg9IjI0ODcuNSIgeT0iNTQ2LjIzNDQiPkZJTkNBX1BST1BJRVRBUklPPC90ZXh0PjwvZz48ZyBpZD0iRklOQ0FfUFJPUElFVEFSSU8vaWQ6IGludCI+PGVsbGlwc2UgY3g9IjI2NjcuMTQ4MiIgY3k9IjQ0MS4wOTU2IiBmaWxsPSIjRjFGMUYxIiByeD0iMzcuNjQ4MiIgcnk9IjEzLjU5NTYiIHN0eWxlPSJzdHJva2U6IzE4MTgxODtzdHJva2Utd2lkdGg6MC41OyIvPjx0ZXh0IGZpbGw9IiMwMDAwMDAiIGZvbnQtZmFtaWx5PSJzYW5zLXNlcmlmIiBmb250LXNpemU9IjE0IiBsZW5ndGhBZGp1c3Q9InNwYWNpbmciIHRleHRMZW5ndGg9IjQ5IiB4PSIyNjQyLjY0ODIiIHk9IjQ0Ni43MzQ0Ij5pZDogaW50PC90ZXh0PjwvZz48ZyBpZD0iRklOQ0FfUFJPUElFVEFSSU8vZmluY2FfaWQ6IGludCI+PGVsbGlwc2UgY3g9IjI4MDEuOTM3IiBjeT0iNDQwLjc4NzQiIGZpbGw9IiNGMUYxRjEiIHJ4PSI2MS45MzciIHJ5PSIxNC43ODc0IiBzdHlsZT0ic3Ryb2tlOiMxODE4MTg7c3Ryb2tlLXdpZHRoOjAuNTsiLz48dGV4dCBmaWxsPSIjMDAwMDAwIiBmb250LWZhbWlseT0ic2Fucy1zZXJpZiIgZm9udC1zaXplPSIxNCIgbGVuZ3RoQWRqdXN0PSJzcGFjaW5nIiB0ZXh0TGVuZ3RoPSI5MSIgeD0iMjc1Ni40MzciIHk9IjQ0NS4yMzQ0Ij5maW5jYV9pZDogaW50PC90ZXh0PjwvZz48ZyBpZD0iRklOQ0FfUFJPUElFVEFSSU8vcHJvcGlldGFyaW9faWQ6IGludCI+PGVsbGlwc2UgY3g9IjIxMzguODI1NCIgY3k9IjQ0MC43NjUxIiBmaWxsPSIjRjFGMUYxIiByeD0iNzkuMzI1NCIgcnk9IjE4LjI2NTEiIHN0eWxlPSJzdHJva2U6IzE4MTgxODtzdHJva2Utd2lkdGg6MC41OyIvPjx0ZXh0IGZpbGw9IiMwMDAwMDAiIGZvbnQtZmFtaWx5PSJzYW5zLXNlcmlmIiBmb250LXNpemU9IjE0IiBsZW5ndGhBZGp1c3Q9InNwYWNpbmciIHRleHRMZW5ndGg9IjEzMyIgeD0iMjA3Mi4zMjU0IiB5PSI0NDEuNzM0NCI+cHJvcGlldGFyaW9faWQ6IGludDwvdGV4dD48L2c+PGcgaWQ9IkZJTkNBX1BST1BJRVRBUklPL2ZlY2hhX2FkcXVpc2ljaW9uOiBkYXRlIj48ZWxsaXBzZSBjeD0iMjM0NS43ODk1IiBjeT0iNDQwLjc1NzkiIGZpbGw9IiNGMUYxRjEiIHJ4PSI5MS43ODk1IiByeT0iMjAuNzU3OSIgc3R5bGU9InN0cm9rZTojMTgxODE4O3N0cm9rZS13aWR0aDowLjU7Ii8+PHRleHQgZmlsbD0iIzAwMDAwMCIgZm9udC1mYW1pbHk9InNhbnMtc2VyaWYiIGZvbnQtc2l6ZT0iMTQiIGxlbmd0aEFkanVzdD0ic3BhY2luZyIgdGV4dExlbmd0aD0iMTYxIiB4PSIyMjY1LjI4OTUiIHk9IjQzOS4yMzQ0Ij5mZWNoYV9hZHF1aXNpY2lvbjogZGF0ZTwvdGV4dD48L2c+PGcgaWQ9IlBlcnRlbmVjZUEiPjxwb2x5Z29uIGZpbGw9IiNGMUYxRjEiIHBvaW50cz0iMjgwLDcyMy41ODI0LDM0MS4xNjQ3LDY5Myw0MDIuMzI5NCw3MjMuNTgyNCwzNDEuMTY0Nyw3NTQuMTY0NyIgc3R5bGU9InN0cm9rZTojMTgxODE4O3N0cm9rZS13aWR0aDowLjU7Ii8+PHRleHQgZmlsbD0iIzAwMDAwMCIgZm9udC1mYW1pbHk9InNhbnMtc2VyaWYiIGZvbnQtc2l6ZT0iMTQiIGxlbmd0aEFkanVzdD0ic3BhY2luZyIgdGV4dExlbmd0aD0iNzAiIHg9IjMwNi4xNjQ3IiB5PSI3MjkuMzI0NSI+UGVydGVuZWNlQTwvdGV4dD48L2c+PGcgaWQ9IlViaWNhZGFFbiI+PHBvbHlnb24gZmlsbD0iI0YxRjFGMSIgcG9pbnRzPSI1NTcuNSwzMTcuODMyNCw2MTUuMTY0NywyODksNjcyLjgyOTQsMzE3LjgzMjQsNjE1LjE2NDcsMzQ2LjY2NDciIHN0eWxlPSJzdHJva2U6IzE4MTgxODtzdHJva2Utd2lkdGg6MC41OyIvPjx0ZXh0IGZpbGw9IiMwMDAwMDAiIGZvbnQtZmFtaWx5PSJzYW5zLXNlcmlmIiBmb250LXNpemU9IjE0IiBsZW5ndGhBZGp1c3Q9InNwYWNpbmciIHRleHRMZW5ndGg9IjYzIiB4PSI1ODMuNjY0NyIgeT0iMzIzLjU3NDUiPlViaWNhZGFFbjwvdGV4dD48L2c+PGcgaWQ9IlRpZW5lVXNvIj48cG9seWdvbiBmaWxsPSIjRjFGMUYxIiBwb2ludHM9IjgyNywzMTguMDgyNCw4ODEuMTY0NywyOTEsOTM1LjMyOTQsMzE4LjA4MjQsODgxLjE2NDcsMzQ1LjE2NDciIHN0eWxlPSJzdHJva2U6IzE4MTgxODtzdHJva2Utd2lkdGg6MC41OyIvPjx0ZXh0IGZpbGw9IiMwMDAwMDAiIGZvbnQtZmFtaWx5PSJzYW5zLXNlcmlmIiBmb250LXNpemU9IjE0IiBsZW5ndGhBZGp1c3Q9InNwYWNpbmciIHRleHRMZW5ndGg9IjU2IiB4PSI4NTMuMTY0NyIgeT0iMzIzLjgyNDUiPlRpZW5lVXNvPC90ZXh0PjwvZz48ZyBpZD0iVGllbmVQbGFubyI+PHBvbHlnb24gZmlsbD0iI0YxRjFGMSIgcG9pbnRzPSIxMzkxLDMxOC4wODI0LDE0NTIuMTY0NywyODcuNSwxNTEzLjMyOTQsMzE4LjA4MjQsMTQ1Mi4xNjQ3LDM0OC42NjQ3IiBzdHlsZT0ic3Ryb2tlOiMxODE4MTg7c3Ryb2tlLXdpZHRoOjAuNTsiLz48dGV4dCBmaWxsPSIjMDAwMDAwIiBmb250LWZhbWlseT0ic2Fucy1zZXJpZiIgZm9udC1zaXplPSIxNCIgbGVuZ3RoQWRqdXN0PSJzcGFjaW5nIiB0ZXh0TGVuZ3RoPSI3MCIgeD0iMTQxNy4xNjQ3IiB5PSIzMjMuODI0NSI+VGllbmVQbGFubzwvdGV4dD48L2c+PGcgaWQ9IlRpZW5lUHJvcGlldGFyaW8iPjxwb2x5Z29uIGZpbGw9IiNGMUYxRjEiIHBvaW50cz0iMjEzNywzMTguMDgyNCwyMjE5LjE2NDcsMjc3LDIzMDEuMzI5NCwzMTguMDgyNCwyMjE5LjE2NDcsMzU5LjE2NDciIHN0eWxlPSJzdHJva2U6IzE4MTgxODtzdHJva2Utd2lkdGg6MC41OyIvPjx0ZXh0IGZpbGw9IiMwMDAwMDAiIGZvbnQtZmFtaWx5PSJzYW5zLXNlcmlmIiBmb250LXNpemU9IjE0IiBsZW5ndGhBZGp1c3Q9InNwYWNpbmciIHRleHRMZW5ndGg9IjExMiIgeD0iMjE2My4xNjQ3IiB5PSIzMjMuODI0NSI+VGllbmVQcm9waWV0YXJpbzwvdGV4dD48L2c+PGcgaWQ9IkVzRHVlbmlvRGUiPjxwb2x5Z29uIGZpbGw9IiNGMUYxRjEiIHBvaW50cz0iMjUyNSwzMTguMDgyNCwyNTg2LjE2NDcsMjg3LjUsMjY0Ny4zMjk0LDMxOC4wODI0LDI1ODYuMTY0NywzNDguNjY0NyIgc3R5bGU9InN0cm9rZTojMTgxODE4O3N0cm9rZS13aWR0aDowLjU7Ii8+PHRleHQgZmlsbD0iIzAwMDAwMCIgZm9udC1mYW1pbHk9InNhbnMtc2VyaWYiIGZvbnQtc2l6ZT0iMTQiIGxlbmd0aEFkanVzdD0ic3BhY2luZyIgdGV4dExlbmd0aD0iNzAiIHg9IjI1NTEuMTY0NyIgeT0iMzIzLjgyNDUiPkVzRHVlbmlvRGU8L3RleHQ+PC9nPjxnIGlkPSJSZWdpc3RyYWRhRW4iPjxwb2x5Z29uIGZpbGw9IiNGMUYxRjEiIHBvaW50cz0iMzU0NCwzMTguMDgyNCwzNjEyLjE2NDcsMjg0LDM2ODAuMzI5NCwzMTguMDgyNCwzNjEyLjE2NDcsMzUyLjE2NDciIHN0eWxlPSJzdHJva2U6IzE4MTgxODtzdHJva2Utd2lkdGg6MC41OyIvPjx0ZXh0IGZpbGw9IiMwMDAwMDAiIGZvbnQtZmFtaWx5PSJzYW5zLXNlcmlmIiBmb250LXNpemU9IjE0IiBsZW5ndGhBZGp1c3Q9InNwYWNpbmciIHRleHRMZW5ndGg9Ijg0IiB4PSIzNTcwLjE2NDciIHk9IjMyMy44MjQ1Ij5SZWdpc3RyYWRhRW48L3RleHQ+PC9nPjwhLS1saW5rIEZJTkNBUy9pZDogaW50IHRvIEZJTkNBUy0tPjxnIGlkPSJsaW5rX0ZJTkNBUy9pZDogaW50X0ZJTkNBUyI+PHBhdGggZD0iTTE0MS43NSwzNi41NCBDMTUxLjMyLDQwLjAzIDE2Mi41NCw0My42OSAxNzMsNDYgQzQ0Ny44OCwxMDYuNzkgNzkwLjA3LDEyMC4xMiA4OTMuNzksMTIyLjg0ICIgZmlsbD0ibm9uZSIgaWQ9IkZJTkNBUy9pZDogaW50LUZJTkNBUyIgc3R5bGU9InN0cm9rZTojMTgxODE4O3N0cm9rZS13aWR0aDoxLjA7Ii8+PC9nPjwhLS1saW5rIEZJTkNBUy9udW1lcm9fZmluY2E6IGludCB0byBGSU5DQVMtLT48ZyBpZD0ibGlua19GSU5DQVMvbnVtZXJvX2ZpbmNhOiBpbnRfRklOQ0FTIj48cGF0aCBkPSJNMzE0LjksMzguMjkgQzMyNy45Myw0MSAzNDEuOTYsNDMuNzUgMzU1LDQ2IEM1NTkuNzIsODEuMjQgODA4LjA2LDExMC4zOCA4OTMuOTksMTIwLjA2ICIgZmlsbD0ibm9uZSIgaWQ9IkZJTkNBUy9udW1lcm9fZmluY2E6IGludC1GSU5DQVMiIHN0eWxlPSJzdHJva2U6IzE4MTgxODtzdHJva2Utd2lkdGg6MS4wOyIvPjwvZz48IS0tbGluayBGSU5DQVMvZm9saW9faWQ6IGludCB0byBGSU5DQVMtLT48ZyBpZD0ibGlua19GSU5DQVMvZm9saW9faWQ6IGludF9GSU5DQVMiPjxwYXRoIGQ9Ik00NzYuNDQsMzcuMjMgQzQ4OC44Miw0MC4xOCA1MDIuNDMsNDMuMzIgNTE1LDQ2IEM2NTUuODEsNzYuMDEgODI1LjExLDEwNi4xNCA4OTMuNzgsMTE4LjExICIgZmlsbD0ibm9uZSIgaWQ9IkZJTkNBUy9mb2xpb19pZDogaW50LUZJTkNBUyIgc3R5bGU9InN0cm9rZTojMTgxODE4O3N0cm9rZS13aWR0aDoxLjA7Ii8+PC9nPjwhLS1saW5rIEZJTkNBUy9tdW5pY2lwaW9faWQ6IGludCB0byBGSU5DQVMtLT48ZyBpZD0ibGlua19GSU5DQVMvbXVuaWNpcGlvX2lkOiBpbnRfRklOQ0FTIj48cGF0aCBkPSJNNjQ4LjY5LDM5LjkxIEM3MTMuNzEsNTkuNTggODM2LjA3LDk2LjYgODkzLjYsMTE0ICIgZmlsbD0ibm9uZSIgaWQ9IkZJTkNBUy9tdW5pY2lwaW9faWQ6IGludC1GSU5DQVMiIHN0eWxlPSJzdHJva2U6IzE4MTgxODtzdHJva2Utd2lkdGg6MS4wOyIvPjwvZz48IS0tbGluayBGSU5DQVMvYXJlYV9pZDogaW50IHRvIEZJTkNBUy0tPjxnIGlkPSJsaW5rX0ZJTkNBUy9hcmVhX2lkOiBpbnRfRklOQ0FTIj48cGF0aCBkPSJNNzk0LjA1LDM5LjgxIEM4MjEuMDksNTcuMDkgODY5LjI2LDg3Ljg4IDg5OS4wNCwxMDYuOTEgIiBmaWxsPSJub25lIiBpZD0iRklOQ0FTL2FyZWFfaWQ6IGludC1GSU5DQVMiIHN0eWxlPSJzdHJva2U6IzE4MTgxODtzdHJva2Utd2lkdGg6MS4wOyIvPjwvZz48IS0tbGluayBGSU5DQVMvdXNvX2lkOiBpbnQgdG8gRklOQ0FTLS0+PGcgaWQ9ImxpbmtfRklOQ0FTL3Vzb19pZDogaW50X0ZJTkNBUyI+PHBhdGggZD0iTTkyNSwzOS42MiBDOTI1LDU2Ljc4IDkyNSw4Ny41NCA5MjUsMTA2LjY2ICIgZmlsbD0ibm9uZSIgaWQ9IkZJTkNBUy91c29faWQ6IGludC1GSU5DQVMiIHN0eWxlPSJzdHJva2U6IzE4MTgxODtzdHJva2Utd2lkdGg6MS4wOyIvPjwvZz48IS0tbGluayBGSU5DQVMvcGxhbm9faWQ6IGludCB0byBGSU5DQVMtLT48ZyBpZD0ibGlua19GSU5DQVMvcGxhbm9faWQ6IGludF9GSU5DQVMiPjxwYXRoIGQ9Ik0xMDU3LjkxLDQwLjIyIEMxMDMwLjIzLDU3LjU2IDk4MS42NCw4OC4wMSA5NTEuNTEsMTA2Ljg5ICIgZmlsbD0ibm9uZSIgaWQ9IkZJTkNBUy9wbGFub19pZDogaW50LUZJTkNBUyIgc3R5bGU9InN0cm9rZTojMTgxODE4O3N0cm9rZS13aWR0aDoxLjA7Ii8+PC9nPjwhLS1saW5rIEZJTkNBUy9kaXJlY2Npb246IHN0cmluZyB0byBGSU5DQVMtLT48ZyBpZD0ibGlua19GSU5DQVMvZGlyZWNjaW9uOiBzdHJpbmdfRklOQ0FTIj48cGF0aCBkPSJNMTIwNi44NCwzOS44MSBDMTE0MC4zNyw1OS41NSAxMDE0LjUsOTYuOTMgOTU2LjE1LDExNC4yNSAiIGZpbGw9Im5vbmUiIGlkPSJGSU5DQVMvZGlyZWNjaW9uOiBzdHJpbmctRklOQ0FTIiBzdHlsZT0ic3Ryb2tlOiMxODE4MTg7c3Ryb2tlLXdpZHRoOjEuMDsiLz48L2c+PCEtLWxpbmsgRklOQ0FTL2FyZWFfdG90YWw6IGRlY2ltYWwgdG8gRklOQ0FTLS0+PGcgaWQ9ImxpbmtfRklOQ0FTL2FyZWFfdG90YWw6IGRlY2ltYWxfRklOQ0FTIj48cGF0aCBkPSJNMTM3OS45NCwzOC41MiBDMTM2Ny4xLDQxLjAxIDEzNTMuNiw0My42MSAxMzQxLDQ2IEMxMTk3LjIsNzMuMzMgMTAyNS4yNCwxMDUuMDcgOTU2LjA3LDExNy43OSAiIGZpbGw9Im5vbmUiIGlkPSJGSU5DQVMvYXJlYV90b3RhbDogZGVjaW1hbC1GSU5DQVMiIHN0eWxlPSJzdHJva2U6IzE4MTgxODtzdHJva2Utd2lkdGg6MS4wOyIvPjwvZz48IS0tbGluayBGSU5DQVMvdGlwb190ZW5lbmNpYTogc3RyaW5nIHRvIEZJTkNBUy0tPjxnIGlkPSJsaW5rX0ZJTkNBUy90aXBvX3RlbmVuY2lhOiBzdHJpbmdfRklOQ0FTIj48cGF0aCBkPSJNMTU3Ni41NywzOS4xNiBDMTU2My4xOSw0MS41NiAxNTQ5LjE1LDQzLjk3IDE1MzYsNDYgQzEzMTQuNjIsODAuMjQgMTA0Ni4zOCwxMTAuMzQgOTU2LjI0LDEyMC4xNSAiIGZpbGw9Im5vbmUiIGlkPSJGSU5DQVMvdGlwb190ZW5lbmNpYTogc3RyaW5nLUZJTkNBUyIgc3R5bGU9InN0cm9rZTojMTgxODE4O3N0cm9rZS13aWR0aDoxLjA7Ii8+PC9nPjwhLS1saW5rIEZJTkNBUy9lc3RhZG86IHN0cmluZyB0byBGSU5DQVMtLT48ZyBpZD0ibGlua19GSU5DQVMvZXN0YWRvOiBzdHJpbmdfRklOQ0FTIj48cGF0aCBkPSJNMTc4My4wOCwzNy44NSBDMTc3MC4yOCw0MC44NSAxNzU2LjEzLDQzLjg3IDE3NDMsNDYgQzE0MzguNTEsOTUuNDcgMTA2NC43NSwxMTYuNjcgOTU2LjAyLDEyMi4wNSAiIGZpbGw9Im5vbmUiIGlkPSJGSU5DQVMvZXN0YWRvOiBzdHJpbmctRklOQ0FTIiBzdHlsZT0ic3Ryb2tlOiMxODE4MTg7c3Ryb2tlLXdpZHRoOjEuMDsiLz48L2c+PCEtLWxpbmsgTElCUk9TL2lkOiBpbnQgdG8gTElCUk9TLS0+PGcgaWQ9ImxpbmtfTElCUk9TL2lkOiBpbnRfTElCUk9TIj48cGF0aCBkPSJNMjk2MS41Miw0NTEuMzEgQzI5NzEsNDU0LjggMjk4MS45Niw0NTguNzEgMjk5Miw0NjIgQzMwNzYuMTIsNDg5LjUyIDMxNzYuNzMsNTE3LjUxIDMyMjYuNjcsNTMxLjA5ICIgZmlsbD0ibm9uZSIgaWQ9IkxJQlJPUy9pZDogaW50LUxJQlJPUyIgc3R5bGU9InN0cm9rZTojMTgxODE4O3N0cm9rZS13aWR0aDoxLjA7Ii8+PC9nPjwhLS1saW5rIExJQlJPUy9ub21icmU6IHN0cmluZyB0byBMSUJST1MtLT48ZyBpZD0ibGlua19MSUJST1Mvbm9tYnJlOiBzdHJpbmdfTElCUk9TIj48cGF0aCBkPSJNMzEwMC4wNiw0NTUuMzUgQzMxMzMuMDUsNDcyLjkzIDMxOTEuMDQsNTAzLjgyIDMyMjYuODIsNTIyLjg5ICIgZmlsbD0ibm9uZSIgaWQ9IkxJQlJPUy9ub21icmU6IHN0cmluZy1MSUJST1MiIHN0eWxlPSJzdHJva2U6IzE4MTgxODtzdHJva2Utd2lkdGg6MS4wOyIvPjwvZz48IS0tbGluayBMSUJST1MvZGVwYXJ0YW1lbnRvX2lkOiBpbnQgdG8gTElCUk9TLS0+PGcgaWQ9ImxpbmtfTElCUk9TL2RlcGFydGFtZW50b19pZDogaW50X0xJQlJPUyI+PHBhdGggZD0iTTMyNTgsNDYwLjM0IEMzMjU4LDQ3OC4zMiAzMjU4LDUwNS41IDMyNTgsNTIyLjg3ICIgZmlsbD0ibm9uZSIgaWQ9IkxJQlJPUy9kZXBhcnRhbWVudG9faWQ6IGludC1MSUJST1MiIHN0eWxlPSJzdHJva2U6IzE4MTgxODtzdHJva2Utd2lkdGg6MS4wOyIvPjwvZz48IS0tbGluayBMSUJST1MvZmVjaGFfY3JlYWNpb246IGRhdGUgdG8gTElCUk9TLS0+PGcgaWQ9ImxpbmtfTElCUk9TL2ZlY2hhX2NyZWFjaW9uOiBkYXRlX0xJQlJPUyI+PHBhdGggZD0iTTM0MjQuOSw0NTguNTQgQzMzODYuOTMsNDc2Ljk2IDMzMjYuMDgsNTA2LjQ4IDMyODkuMjgsNTI0LjMyICIgZmlsbD0ibm9uZSIgaWQ9IkxJQlJPUy9mZWNoYV9jcmVhY2lvbjogZGF0ZS1MSUJST1MiIHN0eWxlPSJzdHJva2U6IzE4MTgxODtzdHJva2Utd2lkdGg6MS4wOyIvPjwvZz48IS0tbGluayBGT0xJT1MvaWQ6IGludCB0byBGT0xJT1MtLT48ZyBpZD0ibGlua19GT0xJT1MvaWQ6IGludF9GT0xJT1MiPjxwYXRoIGQ9Ik0zNDI0Ljk3LDM3LjE0IEMzNDYyLjI4LDU0LjM3IDM1MzguMTMsODkuMzkgMzU4MC44OCwxMDkuMTMgIiBmaWxsPSJub25lIiBpZD0iRk9MSU9TL2lkOiBpbnQtRk9MSU9TIiBzdHlsZT0ic3Ryb2tlOiMxODE4MTg7c3Ryb2tlLXdpZHRoOjEuMDsiLz48L2c+PCEtLWxpbmsgRk9MSU9TL2xpYnJvX2lkOiBpbnQgdG8gRk9MSU9TLS0+PGcgaWQ9ImxpbmtfRk9MSU9TL2xpYnJvX2lkOiBpbnRfRk9MSU9TIj48cGF0aCBkPSJNMzU0OC42LDQwLjgzIEMzNTYxLjk1LDU4LjIzIDM1ODQuODYsODguMTEgMzU5OS4xOCwxMDYuNzggIiBmaWxsPSJub25lIiBpZD0iRk9MSU9TL2xpYnJvX2lkOiBpbnQtRk9MSU9TIiBzdHlsZT0ic3Ryb2tlOiMxODE4MTg7c3Ryb2tlLXdpZHRoOjEuMDsiLz48L2c+PCEtLWxpbmsgRk9MSU9TL251bWVyb19mb2xpbzogaW50IHRvIEZPTElPUy0tPjxnIGlkPSJsaW5rX0ZPTElPUy9udW1lcm9fZm9saW86IGludF9GT0xJT1MiPjxwYXRoIGQ9Ik0zNjkyLjk4LDQyLjk0IEMzNjc1LjIzLDYwLjYgMzY0Ni43Miw4OC45NiAzNjI4LjY5LDEwNi44OSAiIGZpbGw9Im5vbmUiIGlkPSJGT0xJT1MvbnVtZXJvX2ZvbGlvOiBpbnQtRk9MSU9TIiBzdHlsZT0ic3Ryb2tlOiMxODE4MTg7c3Ryb2tlLXdpZHRoOjEuMDsiLz48L2c+PCEtLWxpbmsgRk9MSU9TL2Rlc2NyaXBjaW9uOiBzdHJpbmcgdG8gRk9MSU9TLS0+PGcgaWQ9ImxpbmtfRk9MSU9TL2Rlc2NyaXBjaW9uOiBzdHJpbmdfRk9MSU9TIj48cGF0aCBkPSJNMzg1My43MSw0MS42NiBDMzc5NS43OSw2MS4yNyAzNjk0LjQ0LDk1LjU5IDM2NDMuMzQsMTEyLjg5ICIgZmlsbD0ibm9uZSIgaWQ9IkZPTElPUy9kZXNjcmlwY2lvbjogc3RyaW5nLUZPTElPUyIgc3R5bGU9InN0cm9rZTojMTgxODE4O3N0cm9rZS13aWR0aDoxLjA7Ii8+PC9nPjwhLS1saW5rIERFUEFSVEFNRU5UT1MvaWQ6IGludCB0byBERVBBUlRBTUVOVE9TLS0+PGcgaWQ9ImxpbmtfREVQQVJUQU1FTlRPUy9pZDogaW50X0RFUEFSVEFNRU5UT1MiPjxwYXRoIGQ9Ik04NC42NSw4NDIuNiBDMTA4LjY2LDg1OC42MSAxNTMuMiw4ODguMyAxODEuMTMsOTA2LjkyICIgZmlsbD0ibm9uZSIgaWQ9IkRFUEFSVEFNRU5UT1MvaWQ6IGludC1ERVBBUlRBTUVOVE9TIiBzdHlsZT0ic3Ryb2tlOiMxODE4MTg7c3Ryb2tlLXdpZHRoOjEuMDsiLz48L2c+PCEtLWxpbmsgREVQQVJUQU1FTlRPUy9ub21icmU6IHN0cmluZyB0byBERVBBUlRBTUVOVE9TLS0+PGcgaWQ9ImxpbmtfREVQQVJUQU1FTlRPUy9ub21icmU6IHN0cmluZ19ERVBBUlRBTUVOVE9TIj48cGF0aCBkPSJNMjA2LDg0Ni4yOCBDMjA2LDg2Mi44NCAyMDYsODg5LjYyIDIwNiw5MDYuODkgIiBmaWxsPSJub25lIiBpZD0iREVQQVJUQU1FTlRPUy9ub21icmU6IHN0cmluZy1ERVBBUlRBTUVOVE9TIiBzdHlsZT0ic3Ryb2tlOiMxODE4MTg7c3Ryb2tlLXdpZHRoOjEuMDsiLz48L2c+PCEtLWxpbmsgTVVOSUNJUElPUy9pZDogaW50IHRvIE1VTklDSVBJT1MtLT48ZyBpZD0ibGlua19NVU5JQ0lQSU9TL2lkOiBpbnRfTVVOSUNJUElPUyI+PHBhdGggZD0iTTQwMS4yNiw0NTQuMzUgQzM4OSw0NzEuNjcgMzY2LjY3LDUwMy4yMyAzNTIuOSw1MjIuNjggIiBmaWxsPSJub25lIiBpZD0iTVVOSUNJUElPUy9pZDogaW50LU1VTklDSVBJT1MiIHN0eWxlPSJzdHJva2U6IzE4MTgxODtzdHJva2Utd2lkdGg6MS4wOyIvPjwvZz48IS0tbGluayBNVU5JQ0lQSU9TL2RlcGFydGFtZW50b19pZDogaW50IHRvIE1VTklDSVBJT1MtLT48ZyBpZD0ibGlua19NVU5JQ0lQSU9TL2RlcGFydGFtZW50b19pZDogaW50X01VTklDSVBJT1MiPjxwYXRoIGQ9Ik0xMjkuNDksNDU3LjY3IEMxNzUuNjgsNDc1LjU0IDI1MC45LDUwNC42NCAyOTguMDgsNTIyLjg5ICIgZmlsbD0ibm9uZSIgaWQ9Ik1VTklDSVBJT1MvZGVwYXJ0YW1lbnRvX2lkOiBpbnQtTVVOSUNJUElPUyIgc3R5bGU9InN0cm9rZTojMTgxODE4O3N0cm9rZS13aWR0aDoxLjA7Ii8+PC9nPjwhLS1saW5rIE1VTklDSVBJT1Mvbm9tYnJlOiBzdHJpbmcgdG8gTVVOSUNJUElPUy0tPjxnIGlkPSJsaW5rX01VTklDSVBJT1Mvbm9tYnJlOiBzdHJpbmdfTVVOSUNJUElPUyI+PHBhdGggZD0iTTI4Mi4xOCw0NTYuMzkgQzI5NC43LDQ3NC4wOCAzMTUuOTIsNTA0LjA2IDMyOS4xNiw1MjIuNzYgIiBmaWxsPSJub25lIiBpZD0iTVVOSUNJUElPUy9ub21icmU6IHN0cmluZy1NVU5JQ0lQSU9TIiBzdHlsZT0ic3Ryb2tlOiMxODE4MTg7c3Ryb2tlLXdpZHRoOjEuMDsiLz48L2c+PCEtLWxpbmsgQVJFQVMvaWQ6IGludCB0byBBUkVBUy0tPjxnIGlkPSJsaW5rX0FSRUFTL2lkOiBpbnRfQVJFQVMiPjxwYXRoIGQ9Ik00MDY1LjEsMzguMjYgQzQwODkuMjcsNTUuMTYgNDEzNS4xLDg3LjIxIDQxNjMuMTYsMTA2LjgzICIgZmlsbD0ibm9uZSIgaWQ9IkFSRUFTL2lkOiBpbnQtQVJFQVMiIHN0eWxlPSJzdHJva2U6IzE4MTgxODtzdHJva2Utd2lkdGg6MS4wOyIvPjwvZz48IS0tbGluayBBUkVBUy9ub21icmU6IHN0cmluZyB0byBBUkVBUy0tPjxnIGlkPSJsaW5rX0FSRUFTL25vbWJyZTogc3RyaW5nX0FSRUFTIj48cGF0aCBkPSJNNDE4Nyw0MS42NiBDNDE4Nyw1OS4xNiA0MTg3LDg4LjM4IDQxODcsMTA2Ljc2ICIgZmlsbD0ibm9uZSIgaWQ9IkFSRUFTL25vbWJyZTogc3RyaW5nLUFSRUFTIiBzdHlsZT0ic3Ryb2tlOiMxODE4MTg7c3Ryb2tlLXdpZHRoOjEuMDsiLz48L2c+PCEtLWxpbmsgQVJFQVMvZGVzY3JpcGNpb246IHN0cmluZyB0byBBUkVBUy0tPjxnIGlkPSJsaW5rX0FSRUFTL2Rlc2NyaXBjaW9uOiBzdHJpbmdfQVJFQVMiPjxwYXRoIGQ9Ik00MzM2Ljg3LDQzLjE1IEM0MzAyLjc0LDYxLjQ1IDQyNDcuNiw5MS4wMSA0MjE0LjU3LDEwOC43MiAiIGZpbGw9Im5vbmUiIGlkPSJBUkVBUy9kZXNjcmlwY2lvbjogc3RyaW5nLUFSRUFTIiBzdHlsZT0ic3Ryb2tlOiMxODE4MTg7c3Ryb2tlLXdpZHRoOjEuMDsiLz48L2c+PCEtLWxpbmsgVVNPUy9pZDogaW50IHRvIFVTT1MtLT48ZyBpZD0ibGlua19VU09TL2lkOiBpbnRfVVNPUyI+PHBhdGggZD0iTTc1Myw0NTQuNzUgQzc1Myw0NzIuMTkgNzUzLDUwMy41NCA3NTMsNTIyLjgzICIgZmlsbD0ibm9uZSIgaWQ9IlVTT1MvaWQ6IGludC1VU09TIiBzdHlsZT0ic3Ryb2tlOiMxODE4MTg7c3Ryb2tlLXdpZHRoOjEuMDsiLz48L2c+PCEtLWxpbmsgVVNPUy90aXBvOiBzdHJpbmcgdG8gVVNPUy0tPjxnIGlkPSJsaW5rX1VTT1MvdGlwbzogc3RyaW5nX1VTT1MiPjxwYXRoIGQ9Ik02MzguNTMsNDU0Ljk1IEM2NjIuMjMsNDcyLjQ2IDcwNC41Myw1MDMuNyA3MzAuNTQsNTIyLjkxICIgZmlsbD0ibm9uZSIgaWQ9IlVTT1MvdGlwbzogc3RyaW5nLVVTT1MiIHN0eWxlPSJzdHJva2U6IzE4MTgxODtzdHJva2Utd2lkdGg6MS4wOyIvPjwvZz48IS0tbGluayBQTEFOT1MvaWQ6IGludCB0byBQTEFOT1MtLT48ZyBpZD0ibGlua19QTEFOT1MvaWQ6IGludF9QTEFOT1MiPjxwYXRoIGQ9Ik05NjUuMjMsNDUxLjYgQzk3NC45Miw0NTUuMyA5ODYuMzcsNDU5LjI4IDk5Nyw0NjIgQzExNzQuNDIsNTA3LjMyIDEzOTMuODksNTI5Ljc5IDE0NzMuOTQsNTM2LjkxICIgZmlsbD0ibm9uZSIgaWQ9IlBMQU5PUy9pZDogaW50LVBMQU5PUyIgc3R5bGU9InN0cm9rZTojMTgxODE4O3N0cm9rZS13aWR0aDoxLjA7Ii8+PC9nPjwhLS1saW5rIFBMQU5PUy9udW1lcm9fcGxhbm86IHN0cmluZyB0byBQTEFOT1MtLT48ZyBpZD0ibGlua19QTEFOT1MvbnVtZXJvX3BsYW5vOiBzdHJpbmdfUExBTk9TIj48cGF0aCBkPSJNMTE1My4zMSw0NTUuMjUgQzEyNDAuMDMsNDc2LjAzIDE0MDUuMTcsNTE1LjU5IDE0NzMuODQsNTMyLjA0ICIgZmlsbD0ibm9uZSIgaWQ9IlBMQU5PUy9udW1lcm9fcGxhbm86IHN0cmluZy1QTEFOT1MiIHN0eWxlPSJzdHJva2U6IzE4MTgxODtzdHJva2Utd2lkdGg6MS4wOyIvPjwvZz48IS0tbGluayBQTEFOT1MvYXJjaGl2b19wbGFubzogc3RyaW5nIHRvIFBMQU5PUy0tPjxnIGlkPSJsaW5rX1BMQU5PUy9hcmNoaXZvX3BsYW5vOiBzdHJpbmdfUExBTk9TIj48cGF0aCBkPSJNMTMzNy4zNiw0NTguOTggQzEzNzUuODcsNDc3LjQ4IDE0MzYuODgsNTA2Ljc4IDE0NzMuNzEsNTI0LjQ3ICIgZmlsbD0ibm9uZSIgaWQ9IlBMQU5PUy9hcmNoaXZvX3BsYW5vOiBzdHJpbmctUExBTk9TIiBzdHlsZT0ic3Ryb2tlOiMxODE4MTg7c3Ryb2tlLXdpZHRoOjEuMDsiLz48L2c+PCEtLWxpbmsgUExBTk9TL2ZlY2hhX3JlZ2lzdHJvOiBkYXRlIHRvIFBMQU5PUy0tPjxnIGlkPSJsaW5rX1BMQU5PUy9mZWNoYV9yZWdpc3RybzogZGF0ZV9QTEFOT1MiPjxwYXRoIGQ9Ik0xNTA1LDQ2MC4zNCBDMTUwNSw0NzguMzIgMTUwNSw1MDUuNSAxNTA1LDUyMi44NyAiIGZpbGw9Im5vbmUiIGlkPSJQTEFOT1MvZmVjaGFfcmVnaXN0cm86IGRhdGUtUExBTk9TIiBzdHlsZT0ic3Ryb2tlOiMxODE4MTg7c3Ryb2tlLXdpZHRoOjEuMDsiLz48L2c+PCEtLWxpbmsgUExBTk9TL2Rlc2NyaXBjaW9uOiBzdHJpbmcgdG8gUExBTk9TLS0+PGcgaWQ9ImxpbmtfUExBTk9TL2Rlc2NyaXBjaW9uOiBzdHJpbmdfUExBTk9TIj48cGF0aCBkPSJNMTY2OS40Nyw0NTguMSBDMTYzMi41Myw0NzYuMzggMTU3Mi42OSw1MDYgMTUzNi4yOCw1MjQuMDIgIiBmaWxsPSJub25lIiBpZD0iUExBTk9TL2Rlc2NyaXBjaW9uOiBzdHJpbmctUExBTk9TIiBzdHlsZT0ic3Ryb2tlOiMxODE4MTg7c3Ryb2tlLXdpZHRoOjEuMDsiLz48L2c+PCEtLWxpbmsgUExBTk9TL2VzdGFkbzogc3RyaW5nIHRvIFBMQU5PUy0tPjxnIGlkPSJsaW5rX1BMQU5PUy9lc3RhZG86IHN0cmluZ19QTEFOT1MiPjxwYXRoIGQ9Ik0xOTQyLjYsNDU1Ljk3IEMxOTI2Ljc1LDQ2Ny45IDE5MDIuMTgsNDg0LjQ0IDE4NzgsNDkzIEMxNzU3LjEyLDUzNS43OSAxNjAyLjA1LDU0MC4yOSAxNTM2LjQ5LDU0MC4wNyAiIGZpbGw9Im5vbmUiIGlkPSJQTEFOT1MvZXN0YWRvOiBzdHJpbmctUExBTk9TIiBzdHlsZT0ic3Ryb2tlOiMxODE4MTg7c3Ryb2tlLXdpZHRoOjEuMDsiLz48L2c+PCEtLWxpbmsgUFJPUElFVEFSSU9TL2lkOiBpbnQgdG8gUFJPUElFVEFSSU9TLS0+PGcgaWQ9ImxpbmtfUFJPUElFVEFSSU9TL2lkOiBpbnRfUFJPUElFVEFSSU9TIj48cGF0aCBkPSJNMjg3OS42MiwzNi4wNSBDMjg3MC4zMywzOS4yOCAyODU5LjcyLDQyLjkgMjg1MCw0NiBDMjc3Ni45Nyw2OS4zMiAyNjkxLjc0LDkzLjg2IDI2MzguMzIsMTA4LjkzICIgZmlsbD0ibm9uZSIgaWQ9IlBST1BJRVRBUklPUy9pZDogaW50LVBST1BJRVRBUklPUyIgc3R5bGU9InN0cm9rZTojMTgxODE4O3N0cm9rZS13aWR0aDoxLjA7Ii8+PC9nPjwhLS1saW5rIFBST1BJRVRBUklPUy9ub21icmU6IHN0cmluZyB0byBQUk9QSUVUQVJJT1MtLT48ZyBpZD0ibGlua19QUk9QSUVUQVJJT1Mvbm9tYnJlOiBzdHJpbmdfUFJPUElFVEFSSU9TIj48cGF0aCBkPSJNMjk5OC4yNCwzNy40MyBDMjk4NS44Niw0MC4yNiAyOTcyLjQyLDQzLjI5IDI5NjAsNDYgQzI4NDUuMzMsNzEgMjcxMC40NCw5OC40OCAyNjM4LjExLDExMy4wNiAiIGZpbGw9Im5vbmUiIGlkPSJQUk9QSUVUQVJJT1Mvbm9tYnJlOiBzdHJpbmctUFJPUElFVEFSSU9TIiBzdHlsZT0ic3Ryb2tlOiMxODE4MTg7c3Ryb2tlLXdpZHRoOjEuMDsiLz48L2c+PCEtLWxpbmsgUFJPUElFVEFSSU9TL2RwaTogc3RyaW5nIHRvIFBST1BJRVRBUklPUy0tPjxnIGlkPSJsaW5rX1BST1BJRVRBUklPUy9kcGk6IHN0cmluZ19QUk9QSUVUQVJJT1MiPjxwYXRoIGQ9Ik0zMTY1LjA3LDM2LjY2IEMzMTUyLjUsMzkuOTIgMzEzOC4xOCw0My4zOSAzMTI1LDQ2IEMyOTQ3Ljg3LDgxLjA3IDI3MzUuMDEsMTA2Ljk1IDI2MzguMzQsMTE3LjgzICIgZmlsbD0ibm9uZSIgaWQ9IlBST1BJRVRBUklPUy9kcGk6IHN0cmluZy1QUk9QSUVUQVJJT1MiIHN0eWxlPSJzdHJva2U6IzE4MTgxODtzdHJva2Utd2lkdGg6MS4wOyIvPjwvZz48IS0tbGluayBQUk9QSUVUQVJJT1MvZGlyZWNjaW9uOiBzdHJpbmcgdG8gUFJPUElFVEFSSU9TLS0+PGcgaWQ9ImxpbmtfUFJPUElFVEFSSU9TL2RpcmVjY2lvbjogc3RyaW5nX1BST1BJRVRBUklPUyI+PHBhdGggZD0iTTIwNjEuNDEsMzguMTggQzIwNzQuMzEsNDAuODYgMjA4OC4xNCw0My42MyAyMTAxLDQ2IEMyMjU4LjAzLDc0LjkyIDI0NDQuODIsMTAzIDI1MzMuODMsMTE1Ljk5ICIgZmlsbD0ibm9uZSIgaWQ9IlBST1BJRVRBUklPUy9kaXJlY2Npb246IHN0cmluZy1QUk9QSUVUQVJJT1MiIHN0eWxlPSJzdHJva2U6IzE4MTgxODtzdHJva2Utd2lkdGg6MS4wOyIvPjwvZz48IS0tbGluayBQUk9QSUVUQVJJT1MvdGVsZWZvbm86IHN0cmluZyB0byBQUk9QSUVUQVJJT1MtLT48ZyBpZD0ibGlua19QUk9QSUVUQVJJT1MvdGVsZWZvbm86IHN0cmluZ19QUk9QSUVUQVJJT1MiPjxwYXRoIGQ9Ik0yMjM2LjEsMzguNDUgQzIzMTAuODYsNTYuNjIgMjQ1Ni4xNyw5MS45NCAyNTMzLjkzLDExMC44NCAiIGZpbGw9Im5vbmUiIGlkPSJQUk9QSUVUQVJJT1MvdGVsZWZvbm86IHN0cmluZy1QUk9QSUVUQVJJT1MiIHN0eWxlPSJzdHJva2U6IzE4MTgxODtzdHJva2Utd2lkdGg6MS4wOyIvPjwvZz48IS0tbGluayBQUk9QSUVUQVJJT1MvZW1haWw6IHN0cmluZyB0byBQUk9QSUVUQVJJT1MtLT48ZyBpZD0ibGlua19QUk9QSUVUQVJJT1MvZW1haWw6IHN0cmluZ19QUk9QSUVUQVJJT1MiPjxwYXRoIGQ9Ik0yMzg2LjQ3LDM5LjQyIEMyNDI3LjMsNTYuNjIgMjUwMS4xOCw4Ny43NiAyNTQ2LjY4LDEwNi45MyAiIGZpbGw9Im5vbmUiIGlkPSJQUk9QSUVUQVJJT1MvZW1haWw6IHN0cmluZy1QUk9QSUVUQVJJT1MiIHN0eWxlPSJzdHJva2U6IzE4MTgxODtzdHJva2Utd2lkdGg6MS4wOyIvPjwvZz48IS0tbGluayBQUk9QSUVUQVJJT1MvbmFjaW9uYWxpZGFkOiBzdHJpbmcgdG8gUFJPUElFVEFSSU9TLS0+PGcgaWQ9ImxpbmtfUFJPUElFVEFSSU9TL25hY2lvbmFsaWRhZDogc3RyaW5nX1BST1BJRVRBUklPUyI+PHBhdGggZD0iTTI1NDYuMjIsNDUuMTUgQzI1NTUuMiw2Mi44NCAyNTY4Ljc0LDg5LjUyIDI1NzcuNDgsMTA2LjcyICIgZmlsbD0ibm9uZSIgaWQ9IlBST1BJRVRBUklPUy9uYWNpb25hbGlkYWQ6IHN0cmluZy1QUk9QSUVUQVJJT1MiIHN0eWxlPSJzdHJva2U6IzE4MTgxODtzdHJva2Utd2lkdGg6MS4wOyIvPjwvZz48IS0tbGluayBQUk9QSUVUQVJJT1MvZmVjaGFfbmFjaW1pZW50bzogZGF0ZSB0byBQUk9QSUVUQVJJT1MtLT48ZyBpZD0ibGlua19QUk9QSUVUQVJJT1MvZmVjaGFfbmFjaW1pZW50bzogZGF0ZV9QUk9QSUVUQVJJT1MiPjxwYXRoIGQ9Ik0yNzE0LjY1LDQ0LjkyIEMyNjg1LjU2LDYyLjY5IDI2NDEuMzYsODkuNjkgMjYxMy4wOCwxMDYuOTYgIiBmaWxsPSJub25lIiBpZD0iUFJPUElFVEFSSU9TL2ZlY2hhX25hY2ltaWVudG86IGRhdGUtUFJPUElFVEFSSU9TIiBzdHlsZT0ic3Ryb2tlOiMxODE4MTg7c3Ryb2tlLXdpZHRoOjEuMDsiLz48L2c+PCEtLWxpbmsgRklOQ0FfUFJPUElFVEFSSU8vaWQ6IGludCB0byBGSU5DQV9QUk9QSUVUQVJJTy0tPjxnIGlkPSJsaW5rX0ZJTkNBX1BST1BJRVRBUklPL2lkOiBpbnRfRklOQ0FfUFJPUElFVEFSSU8iPjxwYXRoIGQ9Ik0yNjU0Ljc0LDQ1NC4yMiBDMjY0My44NSw0NjQuODUgMjYyNy4zNCw0ODAuNDkgMjYxMiw0OTMgQzI1OTkuMSw1MDMuNTMgMjU4NC4wMSw1MTQuNCAyNTcxLjYyLDUyMi45OCAiIGZpbGw9Im5vbmUiIGlkPSJGSU5DQV9QUk9QSUVUQVJJTy9pZDogaW50LUZJTkNBX1BST1BJRVRBUklPIiBzdHlsZT0ic3Ryb2tlOiMxODE4MTg7c3Ryb2tlLXdpZHRoOjEuMDsiLz48L2c+PCEtLWxpbmsgRklOQ0FfUFJPUElFVEFSSU8vZmluY2FfaWQ6IGludCB0byBGSU5DQV9QUk9QSUVUQVJJTy0tPjxnIGlkPSJsaW5rX0ZJTkNBX1BST1BJRVRBUklPL2ZpbmNhX2lkOiBpbnRfRklOQ0FfUFJPUElFVEFSSU8iPjxwYXRoIGQ9Ik0yNzcwLjczLDQ1My45NiBDMjcyNS41MSw0NzEuMjQgMjY0MS42OSw1MDMuMjkgMjU5MC40Nyw1MjIuODggIiBmaWxsPSJub25lIiBpZD0iRklOQ0FfUFJPUElFVEFSSU8vZmluY2FfaWQ6IGludC1GSU5DQV9QUk9QSUVUQVJJTyIgc3R5bGU9InN0cm9rZTojMTgxODE4O3N0cm9rZS13aWR0aDoxLjA7Ii8+PC9nPjwhLS1saW5rIEZJTkNBX1BST1BJRVRBUklPL3Byb3BpZXRhcmlvX2lkOiBpbnQgdG8gRklOQ0FfUFJPUElFVEFSSU8tLT48ZyBpZD0ibGlua19GSU5DQV9QUk9QSUVUQVJJTy9wcm9waWV0YXJpb19pZDogaW50X0ZJTkNBX1BST1BJRVRBUklPIj48cGF0aCBkPSJNMjE5Mi4zNCw0NTQuNzUgQzIyNjUuNDYsNDcyLjIyIDIzOTYuOTEsNTAzLjYzIDI0NzcuNjEsNTIyLjkyICIgZmlsbD0ibm9uZSIgaWQ9IkZJTkNBX1BST1BJRVRBUklPL3Byb3BpZXRhcmlvX2lkOiBpbnQtRklOQ0FfUFJPUElFVEFSSU8iIHN0eWxlPSJzdHJva2U6IzE4MTgxODtzdHJva2Utd2lkdGg6MS4wOyIvPjwvZz48IS0tbGluayBGSU5DQV9QUk9QSUVUQVJJTy9mZWNoYV9hZHF1aXNpY2lvbjogZGF0ZSB0byBGSU5DQV9QUk9QSUVUQVJJTy0tPjxnIGlkPSJsaW5rX0ZJTkNBX1BST1BJRVRBUklPL2ZlY2hhX2FkcXVpc2ljaW9uOiBkYXRlX0ZJTkNBX1BST1BJRVRBUklPIj48cGF0aCBkPSJNMjM4My44MSw0NjAuMzQgQzI0MjAuODgsNDc4LjMyIDI0NzYuOSw1MDUuNSAyNTEyLjcxLDUyMi44NyAiIGZpbGw9Im5vbmUiIGlkPSJGSU5DQV9QUk9QSUVUQVJJTy9mZWNoYV9hZHF1aXNpY2lvbjogZGF0ZS1GSU5DQV9QUk9QSUVUQVJJTyIgc3R5bGU9InN0cm9rZTojMTgxODE4O3N0cm9rZS13aWR0aDoxLjA7Ii8+PC9nPjwhLS1saW5rIE1VTklDSVBJT1MgdG8gUGVydGVuZWNlQS0tPjxnIGlkPSJsaW5rX01VTklDSVBJT1NfUGVydGVuZWNlQSI+PHBhdGggZD0iTTM0MSw1NTguMiBDMzQxLDU4OC44MyAzNDEsNjU0LjM2IDM0MSw2OTIuNzYgIiBmaWxsPSJub25lIiBpZD0iTVVOSUNJUElPUy1QZXJ0ZW5lY2VBIiBzdHlsZT0ic3Ryb2tlOiMxODE4MTg7c3Ryb2tlLXdpZHRoOjEuMDsiLz48dGV4dCBmaWxsPSIjMDAwMDAwIiBmb250LWZhbWlseT0ic2Fucy1zZXJpZiIgZm9udC1zaXplPSIxMSIgbGVuZ3RoQWRqdXN0PSJzcGFjaW5nIiB0ZXh0TGVuZ3RoPSI2IiB4PSIzNDIiIHk9IjYzMC4zOTg0Ij5OPC90ZXh0PjwvZz48IS0tbGluayBQZXJ0ZW5lY2VBIHRvIERFUEFSVEFNRU5UT1MtLT48ZyBpZD0ibGlua19QZXJ0ZW5lY2VBX0RFUEFSVEFNRU5UT1MiPjxwYXRoIGQ9Ik0zMzMuMTYsNzUwLjIzIEMzMjQuNTgsNzc1Ljk0IDMwOS4xNyw4MTUuODcgMjg4LDg0NiBDMjcxLjIyLDg2OS44OCAyNDYuMiw4OTIuMjIgMjI4LjIxLDkwNi43MiAiIGZpbGw9Im5vbmUiIGlkPSJQZXJ0ZW5lY2VBLURFUEFSVEFNRU5UT1MiIHN0eWxlPSJzdHJva2U6IzE4MTgxODtzdHJva2Utd2lkdGg6MS4wOyIvPjx0ZXh0IGZpbGw9IiMwMDAwMDAiIGZvbnQtZmFtaWx5PSJzYW5zLXNlcmlmIiBmb250LXNpemU9IjExIiBsZW5ndGhBZGp1c3Q9InNwYWNpbmciIHRleHRMZW5ndGg9IjYiIHg9IjMwNyIgeT0iODM1LjM5ODQiPjE8L3RleHQ+PC9nPjwhLS1saW5rIEZJTkNBUyB0byBVYmljYWRhRW4tLT48ZyBpZD0ibGlua19GSU5DQVNfVWJpY2FkYUVuIj48cGF0aCBkPSJNODk4LjAzLDE0Mi4xNiBDODM4LjgxLDE3OC43NCA2OTguMTEsMjY1LjY2IDY0MC4zOCwzMDEuMzIgIiBmaWxsPSJub25lIiBpZD0iRklOQ0FTLVViaWNhZGFFbiIgc3R5bGU9InN0cm9rZTojMTgxODE4O3N0cm9rZS13aWR0aDoxLjA7Ii8+PHRleHQgZmlsbD0iIzAwMDAwMCIgZm9udC1mYW1pbHk9InNhbnMtc2VyaWYiIGZvbnQtc2l6ZT0iMTEiIGxlbmd0aEFkanVzdD0ic3BhY2luZyIgdGV4dExlbmd0aD0iNiIgeD0iNzk3IiB5PSIyMTQuMzk4NCI+TjwvdGV4dD48L2c+PCEtLWxpbmsgVWJpY2FkYUVuIHRvIE1VTklDSVBJT1MtLT48ZyBpZD0ibGlua19VYmljYWRhRW5fTVVOSUNJUElPUyI+PHBhdGggZD0iTTU5Ny4xNywzMzguMzUgQzU3MC4xMywzNjcuMTIgNTE2LjQ0LDQyMi4wNyA0NjUsNDYyIEM0MzQuNzIsNDg1LjUgMzk3LjAyLDUwOC4yNCAzNzEuMTksNTIyLjk0ICIgZmlsbD0ibm9uZSIgaWQ9IlViaWNhZGFFbi1NVU5JQ0lQSU9TIiBzdHlsZT0ic3Ryb2tlOiMxODE4MTg7c3Ryb2tlLXdpZHRoOjEuMDsiLz48dGV4dCBmaWxsPSIjMDAwMDAwIiBmb250LWZhbWlseT0ic2Fucy1zZXJpZiIgZm9udC1zaXplPSIxMSIgbGVuZ3RoQWRqdXN0PSJzcGFjaW5nIiB0ZXh0TGVuZ3RoPSI2IiB4PSI1MTUiIHk9IjQ0NS44OTg0Ij4xPC90ZXh0PjwvZz48IS0tbGluayBGSU5DQVMgdG8gVGllbmVVc28tLT48ZyBpZD0ibGlua19GSU5DQVNfVGllbmVVc28iPjxwYXRoIGQ9Ik05MjEuMTcsMTQyLjE2IEM5MTMuMzMsMTc2LjI4IDg5NS40MywyNTQuMjEgODg2LjQxLDI5My40NyAiIGZpbGw9Im5vbmUiIGlkPSJGSU5DQVMtVGllbmVVc28iIHN0eWxlPSJzdHJva2U6IzE4MTgxODtzdHJva2Utd2lkdGg6MS4wOyIvPjx0ZXh0IGZpbGw9IiMwMDAwMDAiIGZvbnQtZmFtaWx5PSJzYW5zLXNlcmlmIiBmb250LXNpemU9IjExIiBsZW5ndGhBZGp1c3Q9InNwYWNpbmciIHRleHRMZW5ndGg9IjYiIHg9IjkwOCIgeT0iMjE0LjM5ODQiPk48L3RleHQ+PC9nPjwhLS1saW5rIFRpZW5lVXNvIHRvIFVTT1MtLT48ZyBpZD0ibGlua19UaWVuZVVzb19VU09TIj48cGF0aCBkPSJNODcxLjI5LDM0MC4zNiBDODU4LjExLDM2OC43NyA4MzMuMjcsNDIwLjI4IDgwOCw0NjIgQzc5NC44NCw0ODMuNzMgNzc3LjYxLDUwNy4zNiA3NjUuOTcsNTIyLjc0ICIgZmlsbD0ibm9uZSIgaWQ9IlRpZW5lVXNvLVVTT1MiIHN0eWxlPSJzdHJva2U6IzE4MTgxODtzdHJva2Utd2lkdGg6MS4wOyIvPjx0ZXh0IGZpbGw9IiMwMDAwMDAiIGZvbnQtZmFtaWx5PSJzYW5zLXNlcmlmIiBmb250LXNpemU9IjExIiBsZW5ndGhBZGp1c3Q9InNwYWNpbmciIHRleHRMZW5ndGg9IjYiIHg9IjgzMiIgeT0iNDQ1Ljg5ODQiPjE8L3RleHQ+PC9nPjwhLS1saW5rIEZJTkNBUyB0byBUaWVuZVBsYW5vLS0+PGcgaWQ9ImxpbmtfRklOQ0FTX1RpZW5lUGxhbm8iPjxwYXRoIGQ9Ik05NTYuMzksMTM2LjkxIEMxMDQ5LjEyLDE3MC42IDEzMjEuMzgsMjY5LjU0IDE0MTcuNzMsMzA0LjU1ICIgZmlsbD0ibm9uZSIgaWQ9IkZJTkNBUy1UaWVuZVBsYW5vIiBzdHlsZT0ic3Ryb2tlOiMxODE4MTg7c3Ryb2tlLXdpZHRoOjEuMDsiLz48dGV4dCBmaWxsPSIjMDAwMDAwIiBmb250LWZhbWlseT0ic2Fucy1zZXJpZiIgZm9udC1zaXplPSIxMSIgbGVuZ3RoQWRqdXN0PSJzcGFjaW5nIiB0ZXh0TGVuZ3RoPSI2IiB4PSIxMTcyIiB5PSIyMTQuMzk4NCI+TjwvdGV4dD48L2c+PCEtLWxpbmsgVGllbmVQbGFubyB0byBQTEFOT1MtLT48ZyBpZD0ibGlua19UaWVuZVBsYW5vX1BMQU5PUyI+PHBhdGggZD0iTTE0OTguMSwzMjUuNTQgQzE1ODMuODksMzM4Ljc2IDE3NjIuNjYsMzcxLjU3IDE3OTksNDIwIEMxODY4LjYxLDUxMi43NiAxNjI0Ljk3LDUzMy43NyAxNTM2LjE2LDUzOC4zMSAiIGZpbGw9Im5vbmUiIGlkPSJUaWVuZVBsYW5vLVBMQU5PUyIgc3R5bGU9InN0cm9rZTojMTgxODE4O3N0cm9rZS13aWR0aDoxLjA7Ii8+PHRleHQgZmlsbD0iIzAwMDAwMCIgZm9udC1mYW1pbHk9InNhbnMtc2VyaWYiIGZvbnQtc2l6ZT0iMTEiIGxlbmd0aEFkanVzdD0ic3BhY2luZyIgdGV4dExlbmd0aD0iNiIgeD0iMTgxMyIgeT0iNDQ1Ljg5ODQiPjE8L3RleHQ+PC9nPjwhLS1saW5rIEZJTkNBUyB0byBUaWVuZVByb3BpZXRhcmlvLS0+PGcgaWQ9ImxpbmtfRklOQ0FTX1RpZW5lUHJvcGlldGFyaW8iPjxwYXRoIGQ9Ik05NTYuMDMsMTMwLjA5IEMxMTI0LjE4LDE1NC45OCAxOTI3LjEzLDI3My44MSAyMTU3LjI0LDMwNy44NiAiIGZpbGw9Im5vbmUiIGlkPSJGSU5DQVMtVGllbmVQcm9waWV0YXJpbyIgc3R5bGU9InN0cm9rZTojMTgxODE4O3N0cm9rZS13aWR0aDoxLjA7Ii8+PHRleHQgZmlsbD0iIzAwMDAwMCIgZm9udC1mYW1pbHk9InNhbnMtc2VyaWYiIGZvbnQtc2l6ZT0iMTEiIGxlbmd0aEFkanVzdD0ic3BhY2luZyIgdGV4dExlbmd0aD0iNiIgeD0iMTUzMCIgeT0iMjE0LjM5ODQiPk48L3RleHQ+PC9nPjwhLS1saW5rIFRpZW5lUHJvcGlldGFyaW8gdG8gRklOQ0FfUFJPUElFVEFSSU8tLT48ZyBpZD0ibGlua19UaWVuZVByb3BpZXRhcmlvX0ZJTkNBX1BST1BJRVRBUklPIj48cGF0aCBkPSJNMjI3MS4zMywzMzIuOTYgQzIzMjIuMDEsMzQ4LjMxIDIzOTkuMTgsMzc2LjcyIDI0NTUsNDIwIEMyNDkyLjY2LDQ0OS4yIDI1MjMuMjcsNDk3LjI4IDI1MzcuODIsNTIyLjY0ICIgZmlsbD0ibm9uZSIgaWQ9IlRpZW5lUHJvcGlldGFyaW8tRklOQ0FfUFJPUElFVEFSSU8iIHN0eWxlPSJzdHJva2U6IzE4MTgxODtzdHJva2Utd2lkdGg6MS4wOyIvPjx0ZXh0IGZpbGw9IiMwMDAwMDAiIGZvbnQtZmFtaWx5PSJzYW5zLXNlcmlmIiBmb250LXNpemU9IjExIiBsZW5ndGhBZGp1c3Q9InNwYWNpbmciIHRleHRMZW5ndGg9IjYiIHg9IjI0OTgiIHk9IjQ0NS44OTg0Ij4xPC90ZXh0PjwvZz48IS0tbGluayBQUk9QSUVUQVJJT1MgdG8gRXNEdWVuaW9EZS0tPjxnIGlkPSJsaW5rX1BST1BJRVRBUklPU19Fc0R1ZW5pb0RlIj48cGF0aCBkPSJNMjU4NiwxNDIuMTYgQzI1ODYsMTc0LjU1IDI1ODYsMjQ2LjQzIDI1ODYsMjg3LjIyICIgZmlsbD0ibm9uZSIgaWQ9IlBST1BJRVRBUklPUy1Fc0R1ZW5pb0RlIiBzdHlsZT0ic3Ryb2tlOiMxODE4MTg7c3Ryb2tlLXdpZHRoOjEuMDsiLz48dGV4dCBmaWxsPSIjMDAwMDAwIiBmb250LWZhbWlseT0ic2Fucy1zZXJpZiIgZm9udC1zaXplPSIxMSIgbGVuZ3RoQWRqdXN0PSJzcGFjaW5nIiB0ZXh0TGVuZ3RoPSI2IiB4PSIyNTg3IiB5PSIyMTQuMzk4NCI+TjwvdGV4dD48L2c+PCEtLWxpbmsgRXNEdWVuaW9EZSB0byBGSU5DQV9QUk9QSUVUQVJJTy0tPjxnIGlkPSJsaW5rX0VzRHVlbmlvRGVfRklOQ0FfUFJPUElFVEFSSU8iPjxwYXRoIGQ9Ik0yNTgxLjE0LDM0Ni40OCBDMjU3Mi45NSwzOTIuNzcgMjU1Ni42NSw0ODQuOTUgMjU0OS45Niw1MjIuNzQgIiBmaWxsPSJub25lIiBpZD0iRXNEdWVuaW9EZS1GSU5DQV9QUk9QSUVUQVJJTyIgc3R5bGU9InN0cm9rZTojMTgxODE4O3N0cm9rZS13aWR0aDoxLjA7Ii8+PHRleHQgZmlsbD0iIzAwMDAwMCIgZm9udC1mYW1pbHk9InNhbnMtc2VyaWYiIGZvbnQtc2l6ZT0iMTEiIGxlbmd0aEFkanVzdD0ic3BhY2luZyIgdGV4dExlbmd0aD0iNiIgeD0iMjU3MCIgeT0iNDQ1Ljg5ODQiPjE8L3RleHQ+PC9nPjwhLS1saW5rIEZPTElPUyB0byBSZWdpc3RyYWRhRW4tLT48ZyBpZD0ibGlua19GT0xJT1NfUmVnaXN0cmFkYUVuIj48cGF0aCBkPSJNMzYxMiwxNDIuMTYgQzM2MTIsMTczLjY0IDM2MTIsMjQyLjQyIDM2MTIsMjgzLjcxICIgZmlsbD0ibm9uZSIgaWQ9IkZPTElPUy1SZWdpc3RyYWRhRW4iIHN0eWxlPSJzdHJva2U6IzE4MTgxODtzdHJva2Utd2lkdGg6MS4wOyIvPjx0ZXh0IGZpbGw9IiMwMDAwMDAiIGZvbnQtZmFtaWx5PSJzYW5zLXNlcmlmIiBmb250LXNpemU9IjExIiBsZW5ndGhBZGp1c3Q9InNwYWNpbmciIHRleHRMZW5ndGg9IjYiIHg9IjM2MTMiIHk9IjIxNC4zOTg0Ij5OPC90ZXh0PjwvZz48IS0tbGluayBSZWdpc3RyYWRhRW4gdG8gTElCUk9TLS0+PGcgaWQ9ImxpbmtfUmVnaXN0cmFkYUVuX0xJQlJPUyI+PHBhdGggZD0iTTM2MDguNzksMzUwLjQ2IEMzNjAzLjc3LDM4My4wMiAzNTkxLjA1LDQzMy4wOSAzNTU5LDQ2MiBDMzQ4MS40Nyw1MzEuOTQgMzM0OS4xNyw1NDAuNDMgMzI4OS4yLDU0MC40ICIgZmlsbD0ibm9uZSIgaWQ9IlJlZ2lzdHJhZGFFbi1MSUJST1MiIHN0eWxlPSJzdHJva2U6IzE4MTgxODtzdHJva2Utd2lkdGg6MS4wOyIvPjx0ZXh0IGZpbGw9IiMwMDAwMDAiIGZvbnQtZmFtaWx5PSJzYW5zLXNlcmlmIiBmb250LXNpemU9IjExIiBsZW5ndGhBZGp1c3Q9InNwYWNpbmciIHRleHRMZW5ndGg9IjYiIHg9IjM1OTAiIHk9IjQ0NS44OTg0Ij4xPC90ZXh0PjwvZz48IS0tU1JDPVtaTE5CWms4bTRCcHhBdHBTRkowMjFlck1kMk8zT0hNTUhuSFdoaVd1M1JJS3M1ZDdHSGdqdmpfTnZmTU8xMEdkdzlVeG9iTmNGVFRDUVJ1N0dHVzhaVmdCWmVCUG01bEdWdUlRM3lQellhOFZsdWlZMUlOTk1uSVNiVDZqSjUya2d0TGY4UDFaVFhEYjJmV0pBN0F0ODRrT1MyQ25BazBTZlVaSk4yaUtrdEFHYmZlYlZIZTNudkdibnhaNkpBdXIyMTBTY1RDMTFjR2lodzdsQXpIOXkxN0Q2dzdBVEFGMDZIOTNQZlhZZ01icmp6bTJ0eENyRHJrVExlc1BYaWVQZV9hYVEzbVptT3JvOXJxOGplbk1NODJTQXltUzdpaG5HcF9xZWdLdHpNVkJQdjJLWlRGTEIxVzRPVkRrVHk3VTdVVDVsbFNxYXV5MGhIUUQ2emRSUlFXRTl6dmlfYTJpSHI3VG84Vmx5VDJLRUxzYVdYc1FlM25WdkJzNTctZWdaRVBYdTItekE3WFFOSGN3bG5rYmhvNjFoUm5QNnJBNllIQ0hIb01vMTZDTURvMnF3SEpqclRSNVFoc19oZ3BWaUZ0SF93dnBiU21HcDRFMkpTdld5VHkyU3RKRGVJMVhzYUpvRk1PcTE2THpveTRwbnRzeGtUSzZFT2tQQi1nZmZTNDBncnBVb09Kc1drX2JvZXRoNU51LUI0Mlc3NDh6NXZ0S0tNdjRBWnZncExlTEJBRzJnekxma0t1YnZGcENzZnVoSGJBWWpIdGJRQVZ5V2ZqUzJSMzVyWlZyaVlDOWZDQTdCSnNQZmc2dVA4TktRQkFERE5hR3VhWlRKWWhQOG5LWXh0SVY3cVZSTHNNTUUzSlJ0akRCSlNXeFlGWnFSc05Yd0RMcUdXLVdTZEN6akZGSVJOVHhCeHFWMndRZmJvZFFWZ0VUTmxfcmpUempxel9KOVJOZmRzSkMzZW42WFQ1eFFZbXVwcTJDWHR5azBVZ0Iwb2VmeENEN25mX0ppazJqcl9mMEpIVVdwN2RxU3FnNmk2TDVlYXE3Yng0bk05LWtiZ0ZNQnA5WE9iVW1kUGJqalhuOENyVHpjVHBZRm0wMF0tLT48L2c+PC9zdmc+;" vertex="1" parent="1">
            <mxGeometry x="-1810" y="50" width="4452" height="947" as="geometry" />
          </mxCell>
        </UserObject>
      </root>
    </mxGraphModel>
  </diagram>
</mxfile>
